G04 ================== begin FILE IDENTIFICATION RECORD ==================*
G04 Layout Name:  ETHIIc.brd*
G04 Film Name:    ETHIIC_PMCS*
G04 File Format:  Gerber RS274X*
G04 File Origin:  Cadence Allegro 16.6-P004*
G04 Origin Date:  Sat Mar 14 14:53:29 2015*
G04 *
G04 Layer:  PIN/PASTEMASK_TOP*
G04 Layer:  PACKAGE GEOMETRY/PASTEMASK_TOP*
G04 Layer:  MANUFACTURING/DETAILS*
G04 Layer:  ETCH/WIRE*
G04 Layer:  DRAWING FORMAT/OUTLINE*
G04 Layer:  BOARD GEOMETRY/OUTLINE*
G04 Layer:  BOARD GEOMETRY/PMCS_FORMAT*
G04 Layer:  BOARD GEOMETRY/FORMAT_TOP*
G04 *
G04 Offset:    (0.00 0.00)*
G04 Mirror:    No*
G04 Mode:      Positive*
G04 Rotation:  0*
G04 FullContactRelief:  No*
G04 UndefLineWidth:     4.00*
G04 ================== end FILE IDENTIFICATION RECORD ====================*
%FSLAX25Y25*MOIN*%
%IR0*IPPOS*OFA0.00000B0.00000*MIA0B0*SFA1.00000B1.00000*%
%ADD13R,.08X.15*%
%ADD18R,.008X.046*%
%ADD17R,.046X.008*%
%ADD11R,.03X.04*%
%ADD16R,.02X.02402*%
%ADD15R,.07X.02*%
%ADD10R,.02402X.02*%
%ADD19R,.08X.03*%
%ADD14R,.035X.025*%
%ADD12R,.025X.035*%
%ADD20C,.01*%
%ADD21C,.001*%
%ADD22C,.005*%
%ADD23C,.004*%
%ADD24C,.006*%
G75*
%LPD*%
G75*
G54D10*
X6950Y47000D03*
Y57000D03*
X11050Y47000D03*
Y57000D03*
X24050Y87000D03*
X19950D03*
X24050Y95000D03*
X19950D03*
X24050Y102500D03*
X19950D03*
X39950Y47000D03*
Y57000D03*
X44050Y47000D03*
Y57000D03*
X62950Y172000D03*
X67050D03*
X62950Y188000D03*
X67050D03*
X79450Y98500D03*
X83550D03*
X108450Y146500D03*
Y171500D03*
X112550Y146500D03*
Y171500D03*
X161950Y141500D03*
Y151500D03*
Y166500D03*
Y176500D03*
X166050Y141500D03*
Y151500D03*
Y166500D03*
Y176500D03*
G54D20*
G01X-264400Y1062000D02*
Y942000D01*
G01D02*
X175600D01*
G01D02*
X-264400D01*
G01D02*
Y1062000D01*
G01Y972000D02*
X175600D01*
G01D02*
X-264400D01*
G01Y1002000D02*
X175600D01*
G01X-114400D02*
X-264000D01*
G01X-264400Y1032000D02*
X25600D01*
G01X175600Y1062000D02*
X-264400D01*
G01D02*
X175600D01*
G01X-179400Y942000D02*
Y1062000D01*
G01X175600Y1002000D02*
X-114400D01*
G01X-61900Y1062000D02*
Y1002000D01*
G01X-26900Y1062000D02*
Y1002000D01*
G01X26200Y1002200D02*
X26300Y1061200D01*
G01X175600Y942000D02*
Y1062000D01*
G01D02*
Y942000D01*
G54D11*
X8950Y87000D03*
Y95000D03*
Y102500D03*
X15150Y87000D03*
Y95000D03*
Y102500D03*
G54D21*
G01X701300Y-284700D02*
Y-455100D01*
X704700D01*
G01X1137600Y-283900D02*
X1137700D01*
Y-455000D01*
G54D12*
X22200Y79000D03*
X27800D03*
X34200Y134500D03*
X34700Y213000D03*
X39800Y134500D03*
X40300Y213000D03*
X62700Y165000D03*
X68300D03*
X83700Y52000D03*
Y61500D03*
Y72000D03*
Y89000D03*
X89300Y52000D03*
Y61500D03*
Y72000D03*
Y89000D03*
X162700Y146500D03*
Y171500D03*
X167200Y43000D03*
Y49500D03*
X165700Y69000D03*
Y82500D03*
Y89000D03*
X168300Y146500D03*
Y171500D03*
X172800Y43000D03*
Y49500D03*
X171300Y69000D03*
Y82500D03*
Y89000D03*
G54D22*
G01X957700Y-284700D02*
Y-455000D01*
G01X1208100Y-284300D02*
X1208400D01*
Y-454800D01*
G54D13*
X58500Y31250D03*
Y65750D03*
Y91250D03*
Y125750D03*
G54D23*
G01X-440500Y-515000D02*
Y-525000D01*
G01D02*
X1759500D01*
Y1175000D01*
G01D02*
X-440500D01*
Y-515000D01*
G01X-418925Y-295000D02*
X-411050Y-270000D01*
X-403175Y-295000D01*
G01X-406010Y-286250D02*
X-416090D01*
G01X-390500Y-95000D02*
X-420500D01*
G01X-408530Y78334D02*
X-407270Y79583D01*
X-406325Y81666D01*
X-405695Y84584D01*
X-406325Y87083D01*
X-407585Y88750D01*
X-409790Y90000D01*
X-418295D01*
Y65000D01*
X-407900D01*
X-405695Y66666D01*
X-404435Y69167D01*
X-403805Y72083D01*
X-404435Y74999D01*
X-406325Y77500D01*
X-408530Y78334D01*
X-418295D01*
G01X-390500Y335000D02*
X-420500D01*
G01X-404120Y487916D02*
X-406010Y489167D01*
X-408215Y490000D01*
X-410735D01*
X-413570Y488750D01*
X-415775Y486667D01*
X-417350Y484166D01*
X-418610Y480000D01*
X-418925Y476250D01*
X-418295Y472500D01*
X-417350Y470000D01*
X-415460Y467499D01*
X-413255Y465833D01*
X-411050Y465000D01*
X-408845D01*
X-406640Y465833D01*
X-404750Y467083D01*
X-403175Y468749D01*
G01X-390500Y765000D02*
X-420500D01*
G01X-417980Y945000D02*
Y970000D01*
X-411680D01*
X-409160Y968750D01*
X-407270Y967083D01*
X-405695Y964584D01*
X-404435Y961666D01*
X-404120Y957500D01*
X-404435Y953333D01*
X-405695Y950416D01*
X-407270Y947916D01*
X-409160Y946250D01*
X-411680Y945000D01*
X-417980D01*
G01X-390500Y1105000D02*
Y-455000D01*
X-330500D01*
G01X-390500Y1105000D02*
X-340500D01*
G01X-360500D02*
X-170500D01*
G01X-330500Y-455000D02*
X1189500D01*
G01X-167270Y-505000D02*
Y-480000D01*
X-178925Y-497917D01*
X-163175D01*
G01X-167270Y1125000D02*
Y1150000D01*
X-178925Y1132083D01*
X-163175D01*
G01X-170500Y1105000D02*
X1699500D01*
G01X-149750Y951500D02*
X-155950D01*
Y964000D01*
X-149750D01*
G01X-152230Y957958D02*
X-155950D01*
G01X-140450Y964000D02*
Y951500D01*
G01X-144015Y964000D02*
X-136885D01*
G01X-131305Y951500D02*
Y964000D01*
G01X-124795D02*
Y951500D01*
G01Y957750D02*
X-131305D01*
G01X-117510Y964000D02*
X-113790D01*
G01X-115650D02*
Y951500D01*
G01X-117510D02*
X-113790D01*
G01X-105110Y964000D02*
X-101390D01*
G01X-103250D02*
Y951500D01*
G01X-105110D02*
X-101390D01*
G01X-87440Y962958D02*
X-88370Y963583D01*
X-89455Y964000D01*
X-90695D01*
X-92090Y963375D01*
X-93175Y962333D01*
X-93950Y961083D01*
X-94570Y959000D01*
X-94725Y957125D01*
X-94415Y955250D01*
X-93950Y954000D01*
X-93020Y952750D01*
X-91935Y951917D01*
X-90850Y951500D01*
X-89765D01*
X-88680Y951917D01*
X-87750Y952541D01*
X-86975Y953375D01*
G01X-83100Y947333D02*
X-73800D01*
G01X-67200Y951833D02*
Y964333D01*
X-63480D01*
X-62240Y963708D01*
X-61310Y962250D01*
X-61000Y960583D01*
X-61310Y958916D01*
X-62085Y957666D01*
X-63480Y957041D01*
X-67200D01*
G01X-55730Y951833D02*
Y964333D01*
X-51700Y953916D01*
X-47670Y964333D01*
Y951833D01*
G01X-35890Y963291D02*
X-36820Y963916D01*
X-37905Y964333D01*
X-39145D01*
X-40540Y963708D01*
X-41625Y962666D01*
X-42400Y961416D01*
X-43020Y959333D01*
X-43175Y957458D01*
X-42865Y955583D01*
X-42400Y954333D01*
X-41470Y953083D01*
X-40385Y952250D01*
X-39300Y951833D01*
X-38215D01*
X-37130Y952250D01*
X-36200Y952874D01*
X-35425Y953708D01*
G01X-30155Y953499D02*
X-28915Y952458D01*
X-27520Y951833D01*
X-26280D01*
X-25040Y952458D01*
X-24110Y953499D01*
X-23645Y954958D01*
X-23955Y956416D01*
X-24730Y957666D01*
X-26125Y958500D01*
X-27985Y958916D01*
X-29070Y959750D01*
X-29535Y961208D01*
X-29225Y962666D01*
X-28450Y963708D01*
X-27365Y964333D01*
X-26280D01*
X-25195Y963916D01*
X-24265Y962875D01*
G01X0Y0D02*
X197000D01*
Y216500D01*
X0D01*
Y0D01*
G01X99500Y-455000D02*
Y-505000D01*
G01Y1105000D02*
Y1155000D01*
G01X362020Y-500000D02*
X363910Y-502917D01*
X366430Y-504583D01*
X369265Y-505000D01*
X371785Y-504583D01*
X374305Y-502501D01*
X375880Y-500000D01*
X376195Y-497500D01*
X375565Y-494584D01*
X373360Y-492500D01*
X371155Y-491666D01*
X368320D01*
G01X371155D02*
X373045Y-490417D01*
X374620Y-488334D01*
X375250Y-485834D01*
X374620Y-483333D01*
X373045Y-481250D01*
X370210Y-480000D01*
X367375Y-480417D01*
X364540Y-482084D01*
G01X362020Y1130000D02*
X363910Y1127083D01*
X366430Y1125417D01*
X369265Y1125000D01*
X371785Y1125417D01*
X374305Y1127499D01*
X375880Y1130000D01*
X376195Y1132500D01*
X375565Y1135416D01*
X373360Y1137500D01*
X371155Y1138334D01*
X368320D01*
G01X371155D02*
X373045Y1139583D01*
X374620Y1141666D01*
X375250Y1144166D01*
X374620Y1146667D01*
X373045Y1148750D01*
X370210Y1150000D01*
X367375Y1149583D01*
X364540Y1147916D01*
G01X639500Y-505000D02*
Y-455000D01*
G01Y1105000D02*
Y1155000D01*
G01X1711300Y-284700D02*
X701300D01*
G01X701400Y-335000D02*
X1207700D01*
G01X717847Y-298500D02*
Y-303875D01*
X718220Y-305000D01*
X718967Y-305750D01*
X719900Y-306000D01*
X720833Y-305750D01*
X721580Y-305000D01*
X721953Y-303875D01*
Y-298500D01*
G01X725253Y-306000D02*
Y-298500D01*
X729547Y-306000D01*
Y-298500D01*
G01X733033D02*
Y-306000D01*
X736767D01*
G01X744267D02*
X740533D01*
Y-298500D01*
X744267D01*
G01X742773Y-302125D02*
X740533D01*
G01X747940Y-305000D02*
X748687Y-305625D01*
X749527Y-306000D01*
X750273D01*
X751020Y-305625D01*
X751580Y-305000D01*
X751860Y-304125D01*
X751673Y-303250D01*
X751207Y-302500D01*
X750367Y-302000D01*
X749247Y-301750D01*
X748593Y-301250D01*
X748313Y-300375D01*
X748500Y-299500D01*
X748967Y-298875D01*
X749620Y-298500D01*
X750273D01*
X750927Y-298750D01*
X751487Y-299375D01*
G01X755440Y-305000D02*
X756187Y-305625D01*
X757027Y-306000D01*
X757773D01*
X758520Y-305625D01*
X759080Y-305000D01*
X759360Y-304125D01*
X759173Y-303250D01*
X758707Y-302500D01*
X757867Y-302000D01*
X756747Y-301750D01*
X756093Y-301250D01*
X755813Y-300375D01*
X756000Y-299500D01*
X756467Y-298875D01*
X757120Y-298500D01*
X757773D01*
X758427Y-298750D01*
X758987Y-299375D01*
G01X772400Y-306000D02*
X771653Y-305875D01*
X771000Y-305375D01*
X770440Y-304625D01*
X770067Y-303750D01*
X769880Y-302750D01*
Y-301750D01*
X770067Y-300750D01*
X770440Y-299875D01*
X771000Y-299125D01*
X771653Y-298625D01*
X772400Y-298500D01*
X773147Y-298625D01*
X773800Y-299125D01*
X774360Y-299875D01*
X774733Y-300750D01*
X774920Y-301750D01*
Y-302750D01*
X774733Y-303750D01*
X774360Y-304625D01*
X773800Y-305375D01*
X773147Y-305875D01*
X772400Y-306000D01*
G01X779900Y-298500D02*
Y-306000D01*
G01X777753Y-298500D02*
X782047D01*
G01X785440Y-306000D02*
Y-298500D01*
G01X789360D02*
Y-306000D01*
G01Y-302250D02*
X785440D01*
G01X796767Y-306000D02*
X793033D01*
Y-298500D01*
X796767D01*
G01X795273Y-302125D02*
X793033D01*
G01X800533Y-306000D02*
Y-298500D01*
X802867D01*
X803613Y-298875D01*
X804080Y-299375D01*
X804267Y-300375D01*
X804080Y-301375D01*
X803520Y-302000D01*
X802867Y-302375D01*
X800533D01*
G01X802867D02*
X804267Y-306000D01*
G01X807100Y-298500D02*
X808407Y-306000D01*
X809900Y-298500D01*
X811393Y-306000D01*
X812700Y-298500D01*
G01X816280D02*
X818520D01*
G01X817400D02*
Y-306000D01*
G01X816280D02*
X818520D01*
G01X822940Y-305000D02*
X823687Y-305625D01*
X824527Y-306000D01*
X825273D01*
X826020Y-305625D01*
X826580Y-305000D01*
X826860Y-304125D01*
X826673Y-303250D01*
X826207Y-302500D01*
X825367Y-302000D01*
X824247Y-301750D01*
X823593Y-301250D01*
X823313Y-300375D01*
X823500Y-299500D01*
X823967Y-298875D01*
X824620Y-298500D01*
X825273D01*
X825927Y-298750D01*
X826487Y-299375D01*
G01X834267Y-306000D02*
X830533D01*
Y-298500D01*
X834267D01*
G01X832773Y-302125D02*
X830533D01*
G01X845440Y-305000D02*
X846187Y-305625D01*
X847027Y-306000D01*
X847773D01*
X848520Y-305625D01*
X849080Y-305000D01*
X849360Y-304125D01*
X849173Y-303250D01*
X848707Y-302500D01*
X847867Y-302000D01*
X846747Y-301750D01*
X846093Y-301250D01*
X845813Y-300375D01*
X846000Y-299500D01*
X846467Y-298875D01*
X847120Y-298500D01*
X847773D01*
X848427Y-298750D01*
X848987Y-299375D01*
G01X853033Y-306000D02*
Y-298500D01*
X855273D01*
X856020Y-298875D01*
X856580Y-299750D01*
X856767Y-300750D01*
X856580Y-301750D01*
X856113Y-302500D01*
X855273Y-302875D01*
X853033D01*
G01X864267Y-306000D02*
X860533D01*
Y-298500D01*
X864267D01*
G01X862773Y-302125D02*
X860533D01*
G01X871953Y-299125D02*
X871393Y-298750D01*
X870740Y-298500D01*
X869993D01*
X869153Y-298875D01*
X868500Y-299500D01*
X868033Y-300250D01*
X867660Y-301500D01*
X867567Y-302625D01*
X867753Y-303750D01*
X868033Y-304500D01*
X868593Y-305250D01*
X869247Y-305750D01*
X869900Y-306000D01*
X870553D01*
X871207Y-305750D01*
X871767Y-305375D01*
X872233Y-304875D01*
G01X876280Y-298500D02*
X878520D01*
G01X877400D02*
Y-306000D01*
G01X876280D02*
X878520D01*
G01X883127D02*
Y-298500D01*
X886673D01*
G01X885367Y-302125D02*
X883127D01*
G01X891280Y-298500D02*
X893520D01*
G01X892400D02*
Y-306000D01*
G01X891280D02*
X893520D01*
G01X901767D02*
X898033D01*
Y-298500D01*
X901767D01*
G01X900273Y-302125D02*
X898033D01*
G01X905347Y-306000D02*
Y-298500D01*
X907213D01*
X907960Y-298875D01*
X908520Y-299375D01*
X908987Y-300125D01*
X909360Y-301000D01*
X909453Y-302250D01*
X909360Y-303500D01*
X908987Y-304375D01*
X908520Y-305125D01*
X907960Y-305625D01*
X907213Y-306000D01*
X905347D01*
G01X725500Y-362500D02*
Y-370000D01*
G01X723353Y-362500D02*
X727647D01*
G01X733000Y-370000D02*
X732253Y-369875D01*
X731600Y-369375D01*
X731040Y-368625D01*
X730667Y-367750D01*
X730480Y-366750D01*
Y-365750D01*
X730667Y-364750D01*
X731040Y-363875D01*
X731600Y-363125D01*
X732253Y-362625D01*
X733000Y-362500D01*
X733747Y-362625D01*
X734400Y-363125D01*
X734960Y-363875D01*
X735333Y-364750D01*
X735520Y-365750D01*
Y-366750D01*
X735333Y-367750D01*
X734960Y-368625D01*
X734400Y-369375D01*
X733747Y-369875D01*
X733000Y-370000D01*
G01X738633Y-362500D02*
Y-370000D01*
X742367D01*
G01X749867D02*
X746133D01*
Y-362500D01*
X749867D01*
G01X748373Y-366125D02*
X746133D01*
G01X753633Y-370000D02*
Y-362500D01*
X755967D01*
X756713Y-362875D01*
X757180Y-363375D01*
X757367Y-364375D01*
X757180Y-365375D01*
X756620Y-366000D01*
X755967Y-366375D01*
X753633D01*
G01X755967D02*
X757367Y-370000D01*
G01X760667D02*
X763000Y-362500D01*
X765333Y-370000D01*
G01X764493Y-367375D02*
X761507D01*
G01X768353Y-370000D02*
Y-362500D01*
X772647Y-370000D01*
Y-362500D01*
G01X780053Y-363125D02*
X779493Y-362750D01*
X778840Y-362500D01*
X778093D01*
X777253Y-362875D01*
X776600Y-363500D01*
X776133Y-364250D01*
X775760Y-365500D01*
X775667Y-366625D01*
X775853Y-367750D01*
X776133Y-368500D01*
X776693Y-369250D01*
X777347Y-369750D01*
X778000Y-370000D01*
X778653D01*
X779307Y-369750D01*
X779867Y-369375D01*
X780333Y-368875D01*
G01X787367Y-370000D02*
X783633D01*
Y-362500D01*
X787367D01*
G01X785873Y-366125D02*
X783633D01*
G01X799473Y-367500D02*
X801713D01*
G01X800500Y-365875D02*
Y-369125D01*
G01X806320Y-370250D02*
X809680Y-362500D01*
G01X814287Y-367500D02*
X816713D01*
G01X820200Y-372500D02*
X825800D01*
G01X827700D02*
X833300D01*
G01X835200D02*
X840800D01*
G01X723447Y-350000D02*
Y-342500D01*
X725313D01*
X726060Y-342875D01*
X726620Y-343375D01*
X727087Y-344125D01*
X727460Y-345000D01*
X727553Y-346250D01*
X727460Y-347500D01*
X727087Y-348375D01*
X726620Y-349125D01*
X726060Y-349625D01*
X725313Y-350000D01*
X723447D01*
G01X731880Y-342500D02*
X734120D01*
G01X733000D02*
Y-350000D01*
G01X731880D02*
X734120D01*
G01X738073D02*
Y-342500D01*
X740500Y-348750D01*
X742927Y-342500D01*
Y-350000D01*
G01X749867D02*
X746133D01*
Y-342500D01*
X749867D01*
G01X748373Y-346125D02*
X746133D01*
G01X753353Y-350000D02*
Y-342500D01*
X757647Y-350000D01*
Y-342500D01*
G01X761040Y-349000D02*
X761787Y-349625D01*
X762627Y-350000D01*
X763373D01*
X764120Y-349625D01*
X764680Y-349000D01*
X764960Y-348125D01*
X764773Y-347250D01*
X764307Y-346500D01*
X763467Y-346000D01*
X762347Y-345750D01*
X761693Y-345250D01*
X761413Y-344375D01*
X761600Y-343500D01*
X762067Y-342875D01*
X762720Y-342500D01*
X763373D01*
X764027Y-342750D01*
X764587Y-343375D01*
G01X769380Y-342500D02*
X771620D01*
G01X770500D02*
Y-350000D01*
G01X769380D02*
X771620D01*
G01X778000D02*
X777253Y-349875D01*
X776600Y-349375D01*
X776040Y-348625D01*
X775667Y-347750D01*
X775480Y-346750D01*
Y-345750D01*
X775667Y-344750D01*
X776040Y-343875D01*
X776600Y-343125D01*
X777253Y-342625D01*
X778000Y-342500D01*
X778747Y-342625D01*
X779400Y-343125D01*
X779960Y-343875D01*
X780333Y-344750D01*
X780520Y-345750D01*
Y-346750D01*
X780333Y-347750D01*
X779960Y-348625D01*
X779400Y-349375D01*
X778747Y-349875D01*
X778000Y-350000D01*
G01X783353D02*
Y-342500D01*
X787647Y-350000D01*
Y-342500D01*
G01X791040Y-349000D02*
X791787Y-349625D01*
X792627Y-350000D01*
X793373D01*
X794120Y-349625D01*
X794680Y-349000D01*
X794960Y-348125D01*
X794773Y-347250D01*
X794307Y-346500D01*
X793467Y-346000D01*
X792347Y-345750D01*
X791693Y-345250D01*
X791413Y-344375D01*
X791600Y-343500D01*
X792067Y-342875D01*
X792720Y-342500D01*
X793373D01*
X794027Y-342750D01*
X794587Y-343375D01*
G01X805667Y-350000D02*
X808000Y-342500D01*
X810333Y-350000D01*
G01X809493Y-347375D02*
X806507D01*
G01X813633Y-350000D02*
Y-342500D01*
X815967D01*
X816713Y-342875D01*
X817180Y-343375D01*
X817367Y-344375D01*
X817180Y-345375D01*
X816620Y-346000D01*
X815967Y-346375D01*
X813633D01*
G01X815967D02*
X817367Y-350000D01*
G01X824867D02*
X821133D01*
Y-342500D01*
X824867D01*
G01X823373Y-346125D02*
X821133D01*
G01X836880Y-342500D02*
X839120D01*
G01X838000D02*
Y-350000D01*
G01X836880D02*
X839120D01*
G01X843353D02*
Y-342500D01*
X847647Y-350000D01*
Y-342500D01*
G01X858073Y-350000D02*
Y-342500D01*
X860500Y-348750D01*
X862927Y-342500D01*
Y-350000D01*
G01X866880Y-342500D02*
X869120D01*
G01X868000D02*
Y-350000D01*
G01X866880D02*
X869120D01*
G01X873633Y-342500D02*
Y-350000D01*
X877367D01*
G01X881133Y-342500D02*
Y-350000D01*
X884867D01*
G01X888820Y-350250D02*
X892180Y-342500D01*
G01X895573Y-350000D02*
Y-342500D01*
X898000Y-348750D01*
X900427Y-342500D01*
Y-350000D01*
G01X903073D02*
Y-342500D01*
X905500Y-348750D01*
X907927Y-342500D01*
Y-350000D01*
G01X922965Y1145833D02*
X924855Y1148333D01*
X927060Y1149583D01*
X929580Y1150000D01*
X932730Y1149167D01*
X934935Y1147083D01*
X935565Y1144584D01*
X935250Y1142083D01*
X933990Y1140000D01*
X927690Y1135833D01*
X924855Y1132917D01*
X922965Y1128749D01*
X922335Y1125000D01*
X935565D01*
G01X952965Y-484167D02*
X954855Y-481667D01*
X957060Y-480417D01*
X959580Y-480000D01*
X962730Y-480833D01*
X964935Y-482917D01*
X965565Y-485416D01*
X965250Y-487917D01*
X963990Y-490000D01*
X957690Y-494167D01*
X954855Y-497083D01*
X952965Y-501251D01*
X952335Y-505000D01*
X965565D01*
G01X957700Y-455000D02*
Y-445000D01*
G01Y-345000D02*
Y-445000D01*
G01Y-425000D02*
X1137700D01*
G01X957700Y-395000D02*
X1137700D01*
G01X957700Y-365000D02*
X1137700D01*
G01X957700Y-345000D02*
Y-305000D01*
G01X969380Y-437500D02*
X971620D01*
G01X970500D02*
Y-445000D01*
G01X969380D02*
X971620D01*
G01X976040Y-444000D02*
X976787Y-444625D01*
X977627Y-445000D01*
X978373D01*
X979120Y-444625D01*
X979680Y-444000D01*
X979960Y-443125D01*
X979773Y-442250D01*
X979307Y-441500D01*
X978467Y-441000D01*
X977347Y-440750D01*
X976693Y-440250D01*
X976413Y-439375D01*
X976600Y-438500D01*
X977067Y-437875D01*
X977720Y-437500D01*
X978373D01*
X979027Y-437750D01*
X979587Y-438375D01*
G01X983540Y-444000D02*
X984287Y-444625D01*
X985127Y-445000D01*
X985873D01*
X986620Y-444625D01*
X987180Y-444000D01*
X987460Y-443125D01*
X987273Y-442250D01*
X986807Y-441500D01*
X985967Y-441000D01*
X984847Y-440750D01*
X984193Y-440250D01*
X983913Y-439375D01*
X984100Y-438500D01*
X984567Y-437875D01*
X985220Y-437500D01*
X985873D01*
X986527Y-437750D01*
X987087Y-438375D01*
G01X990947Y-437500D02*
Y-442875D01*
X991320Y-444000D01*
X992067Y-444750D01*
X993000Y-445000D01*
X993933Y-444750D01*
X994680Y-444000D01*
X995053Y-442875D01*
Y-437500D01*
G01X1002367Y-445000D02*
X998633D01*
Y-437500D01*
X1002367D01*
G01X1000873Y-441125D02*
X998633D01*
G01X1005947Y-445000D02*
Y-437500D01*
X1007813D01*
X1008560Y-437875D01*
X1009120Y-438375D01*
X1009587Y-439125D01*
X1009960Y-440000D01*
X1010053Y-441250D01*
X1009960Y-442500D01*
X1009587Y-443375D01*
X1009120Y-444125D01*
X1008560Y-444625D01*
X1007813Y-445000D01*
X1005947D01*
G01X972367Y-415000D02*
X968633D01*
Y-407500D01*
X972367D01*
G01X970873Y-411125D02*
X968633D01*
G01X975853Y-415000D02*
Y-407500D01*
X980147Y-415000D01*
Y-407500D01*
G01X986060Y-411250D02*
X987927D01*
Y-413500D01*
X987367Y-414250D01*
X986713Y-414750D01*
X985780Y-415000D01*
X984847Y-414750D01*
X984193Y-414250D01*
X983633Y-413500D01*
X983260Y-412625D01*
X983073Y-411625D01*
Y-410750D01*
X983260Y-410000D01*
X983633Y-409125D01*
X984193Y-408375D01*
X984753Y-407875D01*
X985500Y-407500D01*
X986153D01*
X986900Y-407750D01*
X987460Y-408250D01*
G01X991133Y-415000D02*
Y-407500D01*
X993467D01*
X994213Y-407875D01*
X994680Y-408375D01*
X994867Y-409375D01*
X994680Y-410375D01*
X994120Y-411000D01*
X993467Y-411375D01*
X991133D01*
G01X993467D02*
X994867Y-415000D01*
G01X1001060Y-411250D02*
X1002927D01*
Y-413500D01*
X1002367Y-414250D01*
X1001713Y-414750D01*
X1000780Y-415000D01*
X999847Y-414750D01*
X999193Y-414250D01*
X998633Y-413500D01*
X998260Y-412625D01*
X998073Y-411625D01*
Y-410750D01*
X998260Y-410000D01*
X998633Y-409125D01*
X999193Y-408375D01*
X999753Y-407875D01*
X1000500Y-407500D01*
X1001153D01*
X1001900Y-407750D01*
X1002460Y-408250D01*
G01X972553Y-378125D02*
X971993Y-377750D01*
X971340Y-377500D01*
X970593D01*
X969753Y-377875D01*
X969100Y-378500D01*
X968633Y-379250D01*
X968260Y-380500D01*
X968167Y-381625D01*
X968353Y-382750D01*
X968633Y-383500D01*
X969193Y-384250D01*
X969847Y-384750D01*
X970500Y-385000D01*
X971153D01*
X971807Y-384750D01*
X972367Y-384375D01*
X972833Y-383875D01*
G01X976040Y-385000D02*
Y-377500D01*
G01X979960D02*
Y-385000D01*
G01Y-381250D02*
X976040D01*
G01X987367Y-385000D02*
X983633D01*
Y-377500D01*
X987367D01*
G01X985873Y-381125D02*
X983633D01*
G01X995053Y-378125D02*
X994493Y-377750D01*
X993840Y-377500D01*
X993093D01*
X992253Y-377875D01*
X991600Y-378500D01*
X991133Y-379250D01*
X990760Y-380500D01*
X990667Y-381625D01*
X990853Y-382750D01*
X991133Y-383500D01*
X991693Y-384250D01*
X992347Y-384750D01*
X993000Y-385000D01*
X993653D01*
X994307Y-384750D01*
X994867Y-384375D01*
X995333Y-383875D01*
G01X998447Y-385000D02*
Y-377500D01*
G01X1001993D02*
X998447Y-382125D01*
G01X1002553Y-385000D02*
X1000033Y-380000D01*
G01X1009867Y-385000D02*
X1006133D01*
Y-377500D01*
X1009867D01*
G01X1008373Y-381125D02*
X1006133D01*
G01X1013447Y-385000D02*
Y-377500D01*
X1015313D01*
X1016060Y-377875D01*
X1016620Y-378375D01*
X1017087Y-379125D01*
X1017460Y-380000D01*
X1017553Y-381250D01*
X1017460Y-382500D01*
X1017087Y-383375D01*
X1016620Y-384125D01*
X1016060Y-384625D01*
X1015313Y-385000D01*
X1013447D01*
G01X968447Y-355000D02*
Y-347500D01*
X970313D01*
X971060Y-347875D01*
X971620Y-348375D01*
X972087Y-349125D01*
X972460Y-350000D01*
X972553Y-351250D01*
X972460Y-352500D01*
X972087Y-353375D01*
X971620Y-354125D01*
X971060Y-354625D01*
X970313Y-355000D01*
X968447D01*
G01X976133D02*
Y-347500D01*
X978467D01*
X979213Y-347875D01*
X979680Y-348375D01*
X979867Y-349375D01*
X979680Y-350375D01*
X979120Y-351000D01*
X978467Y-351375D01*
X976133D01*
G01X978467D02*
X979867Y-355000D01*
G01X983167D02*
X985500Y-347500D01*
X987833Y-355000D01*
G01X986993Y-352375D02*
X984007D01*
G01X990200Y-347500D02*
X991507Y-355000D01*
X993000Y-347500D01*
X994493Y-355000D01*
X995800Y-347500D01*
G01X998353Y-355000D02*
Y-347500D01*
X1002647Y-355000D01*
Y-347500D01*
G01X1003540Y-324000D02*
X1004287Y-324625D01*
X1005127Y-325000D01*
X1005873D01*
X1006620Y-324625D01*
X1007180Y-324000D01*
X1007460Y-323125D01*
X1007273Y-322250D01*
X1006807Y-321500D01*
X1005967Y-321000D01*
X1004847Y-320750D01*
X1004193Y-320250D01*
X1003913Y-319375D01*
X1004100Y-318500D01*
X1004567Y-317875D01*
X1005220Y-317500D01*
X1005873D01*
X1006527Y-317750D01*
X1007087Y-318375D01*
G01X1011880Y-317500D02*
X1014120D01*
G01X1013000D02*
Y-325000D01*
G01X1011880D02*
X1014120D01*
G01X1021060Y-321250D02*
X1022927D01*
Y-323500D01*
X1022367Y-324250D01*
X1021713Y-324750D01*
X1020780Y-325000D01*
X1019847Y-324750D01*
X1019193Y-324250D01*
X1018633Y-323500D01*
X1018260Y-322625D01*
X1018073Y-321625D01*
Y-320750D01*
X1018260Y-320000D01*
X1018633Y-319125D01*
X1019193Y-318375D01*
X1019753Y-317875D01*
X1020500Y-317500D01*
X1021153D01*
X1021900Y-317750D01*
X1022460Y-318250D01*
G01X1025853Y-325000D02*
Y-317500D01*
X1030147Y-325000D01*
Y-317500D01*
G01X1033167Y-325000D02*
X1035500Y-317500D01*
X1037833Y-325000D01*
G01X1036993Y-322375D02*
X1034007D01*
G01X1043000Y-317500D02*
Y-325000D01*
G01X1040853Y-317500D02*
X1045147D01*
G01X1048447D02*
Y-322875D01*
X1048820Y-324000D01*
X1049567Y-324750D01*
X1050500Y-325000D01*
X1051433Y-324750D01*
X1052180Y-324000D01*
X1052553Y-322875D01*
Y-317500D01*
G01X1056133Y-325000D02*
Y-317500D01*
X1058467D01*
X1059213Y-317875D01*
X1059680Y-318375D01*
X1059867Y-319375D01*
X1059680Y-320375D01*
X1059120Y-321000D01*
X1058467Y-321375D01*
X1056133D01*
G01X1058467D02*
X1059867Y-325000D01*
G01X1067367D02*
X1063633D01*
Y-317500D01*
X1067367D01*
G01X1065873Y-321125D02*
X1063633D01*
G01X1071040Y-324000D02*
X1071787Y-324625D01*
X1072627Y-325000D01*
X1073373D01*
X1074120Y-324625D01*
X1074680Y-324000D01*
X1074960Y-323125D01*
X1074773Y-322250D01*
X1074307Y-321500D01*
X1073467Y-321000D01*
X1072347Y-320750D01*
X1071693Y-320250D01*
X1071413Y-319375D01*
X1071600Y-318500D01*
X1072067Y-317875D01*
X1072720Y-317500D01*
X1073373D01*
X1074027Y-317750D01*
X1074587Y-318375D01*
G01X1059500Y1105000D02*
Y985000D01*
G01Y1045000D02*
X1709500D01*
G01X1059500Y1075000D02*
X1709500D01*
G01X1070750Y1055000D02*
Y1065000D01*
X1073875D01*
X1074875Y1064500D01*
X1075500Y1063833D01*
X1075750Y1062500D01*
X1075500Y1061167D01*
X1074750Y1060333D01*
X1073875Y1059833D01*
X1070750D01*
G01X1073875D02*
X1075750Y1055000D01*
G01X1085750D02*
X1080750D01*
Y1065000D01*
X1085750D01*
G01X1083750Y1060167D02*
X1080750D01*
G01X1090125Y1065000D02*
X1093250Y1055000D01*
X1096375Y1065000D01*
G01X1099500Y1075000D02*
Y985000D01*
G01X1137700Y-455000D02*
Y-445000D01*
G01D02*
Y-305000D01*
G01Y-425000D02*
X1207700D01*
G01X1137700Y-395000D02*
X1207700D01*
G01X1137700Y-365000D02*
X1207700D01*
G01X1158447Y-325000D02*
Y-317500D01*
X1160313D01*
X1161060Y-317875D01*
X1161620Y-318375D01*
X1162087Y-319125D01*
X1162460Y-320000D01*
X1162553Y-321250D01*
X1162460Y-322500D01*
X1162087Y-323375D01*
X1161620Y-324125D01*
X1161060Y-324625D01*
X1160313Y-325000D01*
X1158447D01*
G01X1165667D02*
X1168000Y-317500D01*
X1170333Y-325000D01*
G01X1169493Y-322375D02*
X1166507D01*
G01X1175500Y-317500D02*
Y-325000D01*
G01X1173353Y-317500D02*
X1177647D01*
G01X1184867Y-325000D02*
X1181133D01*
Y-317500D01*
X1184867D01*
G01X1183373Y-321125D02*
X1181133D01*
G01X1709500Y1105000D02*
Y-455000D01*
X1189500D01*
G01X1199500D02*
Y-505000D01*
G01Y1115000D02*
Y1105000D01*
G01Y1115000D02*
Y1155000D01*
G01X1709500Y-425000D02*
X1209500D01*
G01X1211300Y-364700D02*
X1711300D01*
G01X1215340Y-439000D02*
X1216087Y-439625D01*
X1216927Y-440000D01*
X1217673D01*
X1218420Y-439625D01*
X1218980Y-439000D01*
X1219260Y-438125D01*
X1219073Y-437250D01*
X1218607Y-436500D01*
X1217767Y-436000D01*
X1216647Y-435750D01*
X1215993Y-435250D01*
X1215713Y-434375D01*
X1215900Y-433500D01*
X1216367Y-432875D01*
X1217020Y-432500D01*
X1217673D01*
X1218327Y-432750D01*
X1218887Y-433375D01*
G01X1226853Y-433125D02*
X1226293Y-432750D01*
X1225640Y-432500D01*
X1224893D01*
X1224053Y-432875D01*
X1223400Y-433500D01*
X1222933Y-434250D01*
X1222560Y-435500D01*
X1222467Y-436625D01*
X1222653Y-437750D01*
X1222933Y-438500D01*
X1223493Y-439250D01*
X1224147Y-439750D01*
X1224800Y-440000D01*
X1225453D01*
X1226107Y-439750D01*
X1226667Y-439375D01*
X1227133Y-438875D01*
G01X1229967Y-440000D02*
X1232300Y-432500D01*
X1234633Y-440000D01*
G01X1233793Y-437375D02*
X1230807D01*
G01X1237933Y-432500D02*
Y-440000D01*
X1241667D01*
G01X1249167D02*
X1245433D01*
Y-432500D01*
X1249167D01*
G01X1247673Y-436125D02*
X1245433D01*
G01X1230750Y-387400D02*
Y-374900D01*
X1234470D01*
X1235710Y-375525D01*
X1236640Y-376983D01*
X1236950Y-378650D01*
X1236640Y-380317D01*
X1235865Y-381567D01*
X1234470Y-382192D01*
X1230750D01*
G01X1249660Y-375942D02*
X1248730Y-375317D01*
X1247645Y-374900D01*
X1246405D01*
X1245010Y-375525D01*
X1243925Y-376567D01*
X1243150Y-377817D01*
X1242530Y-379900D01*
X1242375Y-381775D01*
X1242685Y-383650D01*
X1243150Y-384900D01*
X1244080Y-386150D01*
X1245165Y-386983D01*
X1246250Y-387400D01*
X1247335D01*
X1248420Y-386983D01*
X1249350Y-386359D01*
X1250125Y-385525D01*
G01X1259890Y-380733D02*
X1260510Y-380108D01*
X1260975Y-379067D01*
X1261285Y-377608D01*
X1260975Y-376358D01*
X1260355Y-375525D01*
X1259270Y-374900D01*
X1255085D01*
Y-387400D01*
X1260200D01*
X1261285Y-386567D01*
X1261905Y-385317D01*
X1262215Y-383858D01*
X1261905Y-382400D01*
X1260975Y-381150D01*
X1259890Y-380733D01*
X1255085D01*
G01X1269035Y-383233D02*
X1273065D01*
G01X1279885Y-387400D02*
Y-374900D01*
X1287015Y-387400D01*
Y-374900D01*
G01X1291975Y-387400D02*
X1295850Y-374900D01*
X1299725Y-387400D01*
G01X1298330Y-383025D02*
X1293370D01*
G01X1304220Y-387400D02*
Y-374900D01*
X1308250Y-385317D01*
X1312280Y-374900D01*
Y-387400D01*
G01X1323750D02*
X1317550D01*
Y-374900D01*
X1323750D01*
G01X1321270Y-380942D02*
X1317550D01*
G01X1330260Y-387817D02*
X1335840Y-374900D01*
G01X1341885Y-387400D02*
Y-374900D01*
X1349015Y-387400D01*
Y-374900D01*
G01X1357850Y-387400D02*
X1356920Y-387192D01*
X1355990Y-386359D01*
X1355370Y-384900D01*
X1355060Y-383233D01*
X1355370Y-381567D01*
X1355990Y-380108D01*
X1356920Y-379275D01*
X1357850Y-379067D01*
X1358780Y-379275D01*
X1359710Y-380108D01*
X1360330Y-381567D01*
X1360485Y-383233D01*
X1360330Y-384900D01*
X1359710Y-386359D01*
X1358780Y-387192D01*
X1357850Y-387400D01*
G01X1250500Y1055000D02*
Y1065000D01*
X1253000D01*
X1254000Y1064500D01*
X1254750Y1063833D01*
X1255375Y1062833D01*
X1255875Y1061666D01*
X1256000Y1060000D01*
X1255875Y1058333D01*
X1255375Y1057167D01*
X1254750Y1056166D01*
X1254000Y1055500D01*
X1253000Y1055000D01*
X1250500D01*
G01X1265750D02*
X1260750D01*
Y1065000D01*
X1265750D01*
G01X1263750Y1060167D02*
X1260750D01*
G01X1270625Y1056333D02*
X1271625Y1055500D01*
X1272750Y1055000D01*
X1273750D01*
X1274750Y1055500D01*
X1275500Y1056333D01*
X1275875Y1057500D01*
X1275625Y1058666D01*
X1275000Y1059667D01*
X1273875Y1060333D01*
X1272375Y1060667D01*
X1271500Y1061333D01*
X1271125Y1062500D01*
X1271375Y1063667D01*
X1272000Y1064500D01*
X1272875Y1065000D01*
X1273750D01*
X1274625Y1064667D01*
X1275375Y1063833D01*
G01X1286000Y1064167D02*
X1285250Y1064667D01*
X1284375Y1065000D01*
X1283375D01*
X1282250Y1064500D01*
X1281375Y1063667D01*
X1280750Y1062667D01*
X1280250Y1061000D01*
X1280125Y1059500D01*
X1280375Y1058000D01*
X1280750Y1057000D01*
X1281500Y1056000D01*
X1282375Y1055333D01*
X1283250Y1055000D01*
X1284125D01*
X1285000Y1055333D01*
X1285750Y1055833D01*
X1286375Y1056500D01*
G01X1290750Y1055000D02*
Y1065000D01*
X1293875D01*
X1294875Y1064500D01*
X1295500Y1063833D01*
X1295750Y1062500D01*
X1295500Y1061167D01*
X1294750Y1060333D01*
X1293875Y1059833D01*
X1290750D01*
G01X1293875D02*
X1295750Y1055000D01*
G01X1301750Y1065000D02*
X1304750D01*
G01X1303250D02*
Y1055000D01*
G01X1301750D02*
X1304750D01*
G01X1310750D02*
Y1065000D01*
X1313750D01*
X1314750Y1064500D01*
X1315500Y1063333D01*
X1315750Y1062000D01*
X1315500Y1060667D01*
X1314875Y1059667D01*
X1313750Y1059166D01*
X1310750D01*
G01X1323250Y1065000D02*
Y1055000D01*
G01X1320375Y1065000D02*
X1326125D01*
G01X1331750D02*
X1334750D01*
G01X1333250D02*
Y1055000D01*
G01X1331750D02*
X1334750D01*
G01X1343250D02*
X1342250Y1055167D01*
X1341375Y1055833D01*
X1340625Y1056833D01*
X1340125Y1058000D01*
X1339875Y1059333D01*
Y1060667D01*
X1340125Y1062000D01*
X1340625Y1063167D01*
X1341375Y1064167D01*
X1342250Y1064833D01*
X1343250Y1065000D01*
X1344250Y1064833D01*
X1345125Y1064167D01*
X1345875Y1063167D01*
X1346375Y1062000D01*
X1346625Y1060667D01*
Y1059333D01*
X1346375Y1058000D01*
X1345875Y1056833D01*
X1345125Y1055833D01*
X1344250Y1055167D01*
X1343250Y1055000D01*
G01X1350375D02*
Y1065000D01*
X1356125Y1055000D01*
Y1065000D01*
G01X1310750Y1085000D02*
Y1095000D01*
X1313875D01*
X1314875Y1094500D01*
X1315500Y1093833D01*
X1315750Y1092500D01*
X1315500Y1091167D01*
X1314750Y1090333D01*
X1313875Y1089833D01*
X1310750D01*
G01X1313875D02*
X1315750Y1085000D01*
G01X1325750D02*
X1320750D01*
Y1095000D01*
X1325750D01*
G01X1323750Y1090167D02*
X1320750D01*
G01X1330125Y1095000D02*
X1333250Y1085000D01*
X1336375Y1095000D01*
G01X1341750D02*
X1344750D01*
G01X1343250D02*
Y1085000D01*
G01X1341750D02*
X1344750D01*
G01X1350625Y1086333D02*
X1351625Y1085500D01*
X1352750Y1085000D01*
X1353750D01*
X1354750Y1085500D01*
X1355500Y1086333D01*
X1355875Y1087500D01*
X1355625Y1088666D01*
X1355000Y1089667D01*
X1353875Y1090333D01*
X1352375Y1090667D01*
X1351500Y1091333D01*
X1351125Y1092500D01*
X1351375Y1093667D01*
X1352000Y1094500D01*
X1352875Y1095000D01*
X1353750D01*
X1354625Y1094667D01*
X1355375Y1093833D01*
G01X1361750Y1095000D02*
X1364750D01*
G01X1363250D02*
Y1085000D01*
G01X1361750D02*
X1364750D01*
G01X1373250D02*
X1372250Y1085167D01*
X1371375Y1085833D01*
X1370625Y1086833D01*
X1370125Y1088000D01*
X1369875Y1089333D01*
Y1090667D01*
X1370125Y1092000D01*
X1370625Y1093167D01*
X1371375Y1094167D01*
X1372250Y1094833D01*
X1373250Y1095000D01*
X1374250Y1094833D01*
X1375125Y1094167D01*
X1375875Y1093167D01*
X1376375Y1092000D01*
X1376625Y1090667D01*
Y1089333D01*
X1376375Y1088000D01*
X1375875Y1086833D01*
X1375125Y1085833D01*
X1374250Y1085167D01*
X1373250Y1085000D01*
G01X1380375D02*
Y1095000D01*
X1386125Y1085000D01*
Y1095000D01*
G01X1390625Y1086333D02*
X1391625Y1085500D01*
X1392750Y1085000D01*
X1393750D01*
X1394750Y1085500D01*
X1395500Y1086333D01*
X1395875Y1087500D01*
X1395625Y1088666D01*
X1395000Y1089667D01*
X1393875Y1090333D01*
X1392375Y1090667D01*
X1391500Y1091333D01*
X1391125Y1092500D01*
X1391375Y1093667D01*
X1392000Y1094500D01*
X1392875Y1095000D01*
X1393750D01*
X1394625Y1094667D01*
X1395375Y1093833D01*
G01X1356700Y-425900D02*
Y-455900D01*
G01X1367340Y-439000D02*
X1368087Y-439625D01*
X1368927Y-440000D01*
X1369673D01*
X1370420Y-439625D01*
X1370980Y-439000D01*
X1371260Y-438125D01*
X1371073Y-437250D01*
X1370607Y-436500D01*
X1369767Y-436000D01*
X1368647Y-435750D01*
X1367993Y-435250D01*
X1367713Y-434375D01*
X1367900Y-433500D01*
X1368367Y-432875D01*
X1369020Y-432500D01*
X1369673D01*
X1370327Y-432750D01*
X1370887Y-433375D01*
G01X1375680Y-432500D02*
X1377920D01*
G01X1376800D02*
Y-440000D01*
G01X1375680D02*
X1377920D01*
G01X1382527Y-432500D02*
X1386073D01*
X1382527Y-440000D01*
X1386073D01*
G01X1393667D02*
X1389933D01*
Y-432500D01*
X1393667D01*
G01X1392173Y-436125D02*
X1389933D01*
G01X1499500Y1125000D02*
Y1155000D01*
G01X1519500Y985000D02*
Y1075000D01*
G01X1529500Y-425000D02*
Y-455000D01*
G01X1540340Y-439000D02*
X1541087Y-439625D01*
X1541927Y-440000D01*
X1542673D01*
X1543420Y-439625D01*
X1543980Y-439000D01*
X1544260Y-438125D01*
X1544073Y-437250D01*
X1543607Y-436500D01*
X1542767Y-436000D01*
X1541647Y-435750D01*
X1540993Y-435250D01*
X1540713Y-434375D01*
X1540900Y-433500D01*
X1541367Y-432875D01*
X1542020Y-432500D01*
X1542673D01*
X1543327Y-432750D01*
X1543887Y-433375D01*
G01X1547840Y-440000D02*
Y-432500D01*
G01X1551760D02*
Y-440000D01*
G01Y-436250D02*
X1547840D01*
G01X1559167Y-440000D02*
X1555433D01*
Y-432500D01*
X1559167D01*
G01X1557673Y-436125D02*
X1555433D01*
G01X1566667Y-440000D02*
X1562933D01*
Y-432500D01*
X1566667D01*
G01X1565173Y-436125D02*
X1562933D01*
G01X1572300Y-432500D02*
Y-440000D01*
G01X1570153Y-432500D02*
X1574447D01*
G01X1540500Y1055000D02*
Y1065000D01*
X1543000D01*
X1544000Y1064500D01*
X1544750Y1063833D01*
X1545375Y1062833D01*
X1545875Y1061666D01*
X1546000Y1060000D01*
X1545875Y1058333D01*
X1545375Y1057167D01*
X1544750Y1056166D01*
X1544000Y1055500D01*
X1543000Y1055000D01*
X1540500D01*
G01X1550125D02*
X1553250Y1065000D01*
X1556375Y1055000D01*
G01X1555250Y1058500D02*
X1551250D01*
G01X1563250Y1065000D02*
Y1055000D01*
G01X1560375Y1065000D02*
X1566125D01*
G01X1575750Y1055000D02*
X1570750D01*
Y1065000D01*
X1575750D01*
G01X1573750Y1060167D02*
X1570750D01*
G01X1609500Y985000D02*
Y1075000D01*
G01X1620125Y1055000D02*
X1623250Y1065000D01*
X1626375Y1055000D01*
G01X1625250Y1058500D02*
X1621250D01*
G01X1630750Y1055000D02*
Y1065000D01*
X1633750D01*
X1634750Y1064500D01*
X1635500Y1063333D01*
X1635750Y1062000D01*
X1635500Y1060667D01*
X1634875Y1059667D01*
X1633750Y1059166D01*
X1630750D01*
G01X1640750Y1055000D02*
Y1065000D01*
X1643750D01*
X1644750Y1064500D01*
X1645500Y1063333D01*
X1645750Y1062000D01*
X1645500Y1060667D01*
X1644875Y1059667D01*
X1643750Y1059166D01*
X1640750D01*
G01X1650750Y1055000D02*
Y1065000D01*
X1653875D01*
X1654875Y1064500D01*
X1655500Y1063833D01*
X1655750Y1062500D01*
X1655500Y1061167D01*
X1654750Y1060333D01*
X1653875Y1059833D01*
X1650750D01*
G01X1653875D02*
X1655750Y1055000D01*
G01X1663250D02*
X1662250Y1055167D01*
X1661375Y1055833D01*
X1660625Y1056833D01*
X1660125Y1058000D01*
X1659875Y1059333D01*
Y1060667D01*
X1660125Y1062000D01*
X1660625Y1063167D01*
X1661375Y1064167D01*
X1662250Y1064833D01*
X1663250Y1065000D01*
X1664250Y1064833D01*
X1665125Y1064167D01*
X1665875Y1063167D01*
X1666375Y1062000D01*
X1666625Y1060667D01*
Y1059333D01*
X1666375Y1058000D01*
X1665875Y1056833D01*
X1665125Y1055833D01*
X1664250Y1055167D01*
X1663250Y1055000D01*
G01X1670125Y1065000D02*
X1673250Y1055000D01*
X1676375Y1065000D01*
G01X1685750Y1055000D02*
X1680750D01*
Y1065000D01*
X1685750D01*
G01X1683750Y1060167D02*
X1680750D01*
G01X1690500Y1055000D02*
Y1065000D01*
X1693000D01*
X1694000Y1064500D01*
X1694750Y1063833D01*
X1695375Y1062833D01*
X1695875Y1061666D01*
X1696000Y1060000D01*
X1695875Y1058333D01*
X1695375Y1057167D01*
X1694750Y1056166D01*
X1694000Y1055500D01*
X1693000Y1055000D01*
X1690500D01*
G01X1699500Y1105000D02*
X1709500D01*
G01Y-95000D02*
X1739500D01*
G01X1709500Y335000D02*
X1739500D01*
G01X1709500Y765000D02*
X1739500D01*
G01X1735880Y517916D02*
X1733990Y519167D01*
X1731785Y520000D01*
X1729265D01*
X1726430Y518750D01*
X1724225Y516667D01*
X1722650Y514166D01*
X1721390Y510000D01*
X1721075Y506250D01*
X1721705Y502500D01*
X1722650Y500000D01*
X1724540Y497499D01*
X1726745Y495833D01*
X1728950Y495000D01*
X1731155D01*
X1733360Y495833D01*
X1735250Y497083D01*
X1736825Y498749D01*
G01X1731075Y-285000D02*
X1738950Y-260000D01*
X1746825Y-285000D01*
G01X1743990Y-276250D02*
X1733910D01*
G01X1741470Y98334D02*
X1742730Y99583D01*
X1743675Y101666D01*
X1744305Y104584D01*
X1743675Y107083D01*
X1742415Y108750D01*
X1740210Y110000D01*
X1731705D01*
Y85000D01*
X1742100D01*
X1744305Y86666D01*
X1745565Y89167D01*
X1746195Y92083D01*
X1745565Y94999D01*
X1743675Y97500D01*
X1741470Y98334D01*
X1731705D01*
G01X1732020Y945000D02*
Y970000D01*
X1738320D01*
X1740840Y968750D01*
X1742730Y967083D01*
X1744305Y964584D01*
X1745565Y961666D01*
X1745880Y957500D01*
X1745565Y953333D01*
X1744305Y950416D01*
X1742730Y947916D01*
X1740840Y946250D01*
X1738320Y945000D01*
X1732020D01*
G54D14*
X73500Y41700D03*
Y47300D03*
Y55200D03*
Y60800D03*
X74000Y97200D03*
Y102800D03*
Y113200D03*
Y118800D03*
X76000Y77200D03*
Y82800D03*
X110500Y26200D03*
Y31800D03*
X119500Y112800D03*
Y107200D03*
X126500Y25700D03*
Y31300D03*
X126000Y112800D03*
Y107200D03*
X132500Y25700D03*
Y31300D03*
Y112800D03*
Y107200D03*
X138500Y25700D03*
Y31300D03*
X144500Y25700D03*
Y31300D03*
X142500Y112800D03*
Y107200D03*
X167000Y55700D03*
Y61300D03*
X173000Y55700D03*
Y61300D03*
X173500Y146200D03*
Y151800D03*
Y166200D03*
Y171800D03*
X179000Y55700D03*
Y61300D03*
G54D24*
G01X-257008Y951000D02*
X-255050Y957300D01*
X-253092Y951000D01*
G01X-253797Y953205D02*
X-256303D01*
G01X-250317Y951000D02*
Y957300D01*
X-248358D01*
X-247732Y956985D01*
X-247340Y956565D01*
X-247183Y955725D01*
X-247340Y954885D01*
X-247810Y954360D01*
X-248358Y954045D01*
X-250317D01*
G01X-248358D02*
X-247183Y951000D01*
G01X-242450Y957300D02*
Y951000D01*
G01X-244252Y957300D02*
X-240648D01*
G01X-238500D02*
X-237403Y951000D01*
X-236150Y957300D01*
X-234897Y951000D01*
X-233800Y957300D01*
G01X-229850Y951000D02*
X-230477Y951105D01*
X-231025Y951525D01*
X-231495Y952155D01*
X-231808Y952890D01*
X-231965Y953730D01*
Y954570D01*
X-231808Y955410D01*
X-231495Y956145D01*
X-231025Y956775D01*
X-230477Y957195D01*
X-229850Y957300D01*
X-229223Y957195D01*
X-228675Y956775D01*
X-228205Y956145D01*
X-227892Y955410D01*
X-227735Y954570D01*
Y953730D01*
X-227892Y952890D01*
X-228205Y952155D01*
X-228675Y951525D01*
X-229223Y951105D01*
X-229850Y951000D01*
G01X-225117D02*
Y957300D01*
X-223158D01*
X-222532Y956985D01*
X-222140Y956565D01*
X-221983Y955725D01*
X-222140Y954885D01*
X-222610Y954360D01*
X-223158Y954045D01*
X-225117D01*
G01X-223158D02*
X-221983Y951000D01*
G01X-218973D02*
Y957300D01*
G01X-215997D02*
X-218973Y953415D01*
G01X-215527Y951000D02*
X-217642Y955200D01*
G01X-206452Y951000D02*
Y957300D01*
X-202848Y951000D01*
Y957300D01*
G01X-200308Y951000D02*
X-198350Y957300D01*
X-196392Y951000D01*
G01X-197097Y953205D02*
X-199603D01*
G01X-194087Y951000D02*
Y957300D01*
X-192050Y952050D01*
X-190013Y957300D01*
Y951000D01*
G01X-184183D02*
X-187317D01*
Y957300D01*
X-184183D01*
G01X-185437Y954255D02*
X-187317D01*
G01X-254617Y980000D02*
Y986300D01*
X-252737D01*
X-252110Y985985D01*
X-251640Y985250D01*
X-251483Y984410D01*
X-251640Y983570D01*
X-252032Y982940D01*
X-252737Y982625D01*
X-254617D01*
G01X-245027Y985775D02*
X-245497Y986090D01*
X-246045Y986300D01*
X-246672D01*
X-247377Y985985D01*
X-247925Y985460D01*
X-248317Y984830D01*
X-248630Y983780D01*
X-248708Y982835D01*
X-248552Y981890D01*
X-248317Y981260D01*
X-247847Y980630D01*
X-247298Y980210D01*
X-246750Y980000D01*
X-246202D01*
X-245653Y980210D01*
X-245183Y980525D01*
X-244792Y980945D01*
G01X-239823Y983360D02*
X-239510Y983675D01*
X-239275Y984200D01*
X-239118Y984935D01*
X-239275Y985565D01*
X-239588Y985985D01*
X-240137Y986300D01*
X-242252D01*
Y980000D01*
X-239667D01*
X-239118Y980420D01*
X-238805Y981050D01*
X-238648Y981785D01*
X-238805Y982520D01*
X-239275Y983150D01*
X-239823Y983360D01*
X-242252D01*
G01X-235168Y982100D02*
X-233132D01*
G01X-229652Y980000D02*
Y986300D01*
X-226048Y980000D01*
Y986300D01*
G01X-223508Y980000D02*
X-221550Y986300D01*
X-219592Y980000D01*
G01X-220297Y982205D02*
X-222803D01*
G01X-217287Y980000D02*
Y986300D01*
X-215250Y981050D01*
X-213213Y986300D01*
Y980000D01*
G01X-207383D02*
X-210517D01*
Y986300D01*
X-207383D01*
G01X-208637Y983255D02*
X-210517D01*
G01X-204060Y979790D02*
X-201240Y986300D01*
G01X-198152Y980000D02*
Y986300D01*
X-194548Y980000D01*
Y986300D01*
G01X-190050Y980000D02*
X-190520Y980105D01*
X-190990Y980525D01*
X-191303Y981260D01*
X-191460Y982100D01*
X-191303Y982940D01*
X-190990Y983675D01*
X-190520Y984095D01*
X-190050Y984200D01*
X-189580Y984095D01*
X-189110Y983675D01*
X-188797Y982940D01*
X-188718Y982100D01*
X-188797Y981260D01*
X-189110Y980525D01*
X-189580Y980105D01*
X-190050Y980000D01*
G01X-243327Y1048775D02*
X-243797Y1049090D01*
X-244345Y1049300D01*
X-244972D01*
X-245677Y1048985D01*
X-246225Y1048460D01*
X-246617Y1047830D01*
X-246930Y1046780D01*
X-247008Y1045835D01*
X-246852Y1044890D01*
X-246617Y1044260D01*
X-246147Y1043630D01*
X-245598Y1043210D01*
X-245050Y1043000D01*
X-244502D01*
X-243953Y1043210D01*
X-243483Y1043525D01*
X-243092Y1043945D01*
G01X-240473Y1049300D02*
Y1044785D01*
X-240160Y1043840D01*
X-239533Y1043210D01*
X-238750Y1043000D01*
X-237967Y1043210D01*
X-237340Y1043840D01*
X-237027Y1044785D01*
Y1049300D01*
G01X-234095Y1043840D02*
X-233468Y1043315D01*
X-232763Y1043000D01*
X-232137D01*
X-231510Y1043315D01*
X-231040Y1043840D01*
X-230805Y1044575D01*
X-230962Y1045310D01*
X-231353Y1045940D01*
X-232058Y1046360D01*
X-232998Y1046570D01*
X-233547Y1046990D01*
X-233782Y1047725D01*
X-233625Y1048460D01*
X-233233Y1048985D01*
X-232685Y1049300D01*
X-232137D01*
X-231588Y1049090D01*
X-231118Y1048565D01*
G01X-226150Y1049300D02*
Y1043000D01*
G01X-227952Y1049300D02*
X-224348D01*
G01X-219850Y1043000D02*
X-220477Y1043105D01*
X-221025Y1043525D01*
X-221495Y1044155D01*
X-221808Y1044890D01*
X-221965Y1045730D01*
Y1046570D01*
X-221808Y1047410D01*
X-221495Y1048145D01*
X-221025Y1048775D01*
X-220477Y1049195D01*
X-219850Y1049300D01*
X-219223Y1049195D01*
X-218675Y1048775D01*
X-218205Y1048145D01*
X-217892Y1047410D01*
X-217735Y1046570D01*
Y1045730D01*
X-217892Y1044890D01*
X-218205Y1044155D01*
X-218675Y1043525D01*
X-219223Y1043105D01*
X-219850Y1043000D01*
G01X-215587D02*
Y1049300D01*
X-213550Y1044050D01*
X-211513Y1049300D01*
Y1043000D01*
G01X-205683D02*
X-208817D01*
Y1049300D01*
X-205683D01*
G01X-206937Y1046255D02*
X-208817D01*
G01X-202517Y1043000D02*
Y1049300D01*
X-200558D01*
X-199932Y1048985D01*
X-199540Y1048565D01*
X-199383Y1047725D01*
X-199540Y1046885D01*
X-200010Y1046360D01*
X-200558Y1046045D01*
X-202517D01*
G01X-200558D02*
X-199383Y1043000D01*
G01X-56617Y1012000D02*
Y1018300D01*
X-54658D01*
X-54032Y1017985D01*
X-53640Y1017565D01*
X-53483Y1016725D01*
X-53640Y1015885D01*
X-54110Y1015360D01*
X-54658Y1015045D01*
X-56617D01*
G01X-54658D02*
X-53483Y1012000D01*
G01X-47183D02*
X-50317D01*
Y1018300D01*
X-47183D01*
G01X-48437Y1015255D02*
X-50317D01*
G01X-44408Y1018300D02*
X-42450Y1012000D01*
X-40492Y1018300D01*
G01X-55773Y1042000D02*
Y1048300D01*
X-54207D01*
X-53580Y1047985D01*
X-53110Y1047565D01*
X-52718Y1046935D01*
X-52405Y1046200D01*
X-52327Y1045150D01*
X-52405Y1044100D01*
X-52718Y1043365D01*
X-53110Y1042735D01*
X-53580Y1042315D01*
X-54207Y1042000D01*
X-55773D01*
G01X-49708D02*
X-47750Y1048300D01*
X-45792Y1042000D01*
G01X-46497Y1044205D02*
X-49003D01*
G01X-41450Y1048300D02*
Y1042000D01*
G01X-43252Y1048300D02*
X-39648D01*
G01X-33583Y1042000D02*
X-36717D01*
Y1048300D01*
X-33583D01*
G01X-34837Y1045255D02*
X-36717D01*
G54D15*
X74750Y170000D03*
Y180000D03*
Y175000D03*
Y185000D03*
X95250Y170000D03*
Y175000D03*
Y180000D03*
Y185000D03*
G54D16*
X78500Y42450D03*
Y46550D03*
X81500Y82050D03*
Y77950D03*
X98500Y108450D03*
Y112550D03*
X103000D03*
Y108450D03*
X111000Y112550D03*
Y108450D03*
X119000Y192550D03*
Y188450D03*
X129000Y192550D03*
Y188450D03*
X123000Y192550D03*
Y188450D03*
X133000Y192550D03*
Y188450D03*
X179000Y46950D03*
Y51050D03*
Y70050D03*
Y65950D03*
G54D17*
X97200Y44587D03*
Y46162D03*
Y47737D03*
Y49312D03*
Y50887D03*
Y52462D03*
Y54037D03*
Y55612D03*
Y57187D03*
Y58762D03*
Y60337D03*
Y61912D03*
Y63487D03*
Y65062D03*
Y66637D03*
Y68212D03*
Y69788D03*
Y71363D03*
Y72938D03*
Y74513D03*
Y76088D03*
Y77663D03*
Y79238D03*
Y80813D03*
Y82388D03*
Y83963D03*
Y85538D03*
Y87113D03*
Y88688D03*
Y90263D03*
Y91838D03*
Y93413D03*
X157800Y44587D03*
Y50887D03*
Y49312D03*
Y47737D03*
Y46162D03*
Y57187D03*
Y55612D03*
Y54037D03*
Y52462D03*
Y63487D03*
Y61912D03*
Y60337D03*
Y58762D03*
Y68212D03*
Y66637D03*
Y65062D03*
Y74513D03*
Y72938D03*
Y71363D03*
Y69788D03*
Y80813D03*
Y79238D03*
Y77663D03*
Y76088D03*
Y87113D03*
Y85538D03*
Y83963D03*
Y82388D03*
Y93413D03*
Y91838D03*
Y90263D03*
Y88688D03*
G54D18*
X103087Y38700D03*
Y99300D03*
X109387Y38700D03*
X107812D03*
X106237D03*
X104662D03*
Y99300D03*
X106237D03*
X107812D03*
X109387D03*
X115687Y38700D03*
X114112D03*
X112537D03*
X110962D03*
Y99300D03*
X112537D03*
X114112D03*
X115687D03*
X120412Y38700D03*
X118837D03*
X117262D03*
Y99300D03*
X118837D03*
X120412D03*
X126712Y38700D03*
X125137D03*
X123562D03*
X121987D03*
Y99300D03*
X123562D03*
X125137D03*
X126712D03*
X133013Y38700D03*
X131438D03*
X129863D03*
X128288D03*
Y99300D03*
X129863D03*
X131438D03*
X133013D03*
X139313Y38700D03*
X137738D03*
X136163D03*
X134588D03*
Y99300D03*
X136163D03*
X137738D03*
X139313D03*
X145613Y38700D03*
X144038D03*
X142463D03*
X140888D03*
Y99300D03*
X142463D03*
X144038D03*
X145613D03*
X151913Y38700D03*
X150338D03*
X148763D03*
X147188D03*
Y99300D03*
X148763D03*
X150338D03*
X151913D03*
G54D19*
X120500Y141500D03*
Y146500D03*
Y151500D03*
Y156500D03*
Y161500D03*
Y166500D03*
Y171500D03*
Y176500D03*
X152500Y141500D03*
Y146500D03*
Y156500D03*
Y151500D03*
Y161500D03*
Y166500D03*
Y171500D03*
Y176500D03*
M02*
