G04 ================== begin FILE IDENTIFICATION RECORD ==================*
G04 Layout Name:  ETHIIc.brd*
G04 Film Name:    ETHIIC_BOT*
G04 File Format:  Gerber RS274X*
G04 File Origin:  Cadence Allegro 16.6-P004*
G04 Origin Date:  Sat Mar 14 14:53:29 2015*
G04 *
G04 Layer:  VIA CLASS/BOTTOM*
G04 Layer:  PIN/BOTTOM*
G04 Layer:  MANUFACTURING/DETAILS*
G04 Layer:  ETCH/WIRE*
G04 Layer:  ETCH/BOTTOM*
G04 Layer:  DRAWING FORMAT/OUTLINE*
G04 Layer:  BOARD GEOMETRY/OUTLINE*
G04 Layer:  BOARD GEOMETRY/BOT_FORMAT*
G04 Layer:  BOARD GEOMETRY/FORMAT_TOP*
G04 *
G04 Offset:    (0.00 0.00)*
G04 Mirror:    No*
G04 Mode:      Positive*
G04 Rotation:  0*
G04 FullContactRelief:  No*
G04 UndefLineWidth:     4.00*
G04 ================== end FILE IDENTIFICATION RECORD ====================*
%FSLAX25Y25*MOIN*%
%IR0*IPPOS*OFA0.00000B0.00000*MIA0B0*SFA1.00000B1.00000*%
%ADD13C,.06*%
%ADD16C,.08*%
%ADD15C,.09*%
%ADD11C,.018*%
%ADD14C,.066*%
%ADD10C,.276*%
%ADD12C,.1299*%
%ADD17C,.01*%
%ADD18C,.014*%
%ADD19C,.001*%
%ADD20C,.005*%
%ADD21C,.004*%
%ADD22C,.006*%
%ADD23C,.009*%
%ADD28C,.07004*%
%ADD26C,.08004*%
%ADD27C,.03804*%
%ADD25C,.10004*%
%ADD24C,.16604*%
G75*
%LPD*%
G75*
G36*
G01X9500Y2000D02*
X2000Y9500D01*
Y208500D01*
X26043D01*
G02X26418Y207960I0J-400D01*
G03X35786I4684J-1755D01*
G02X36161Y208500I375J140D01*
G01X61500D01*
X64500Y211500D01*
X65441D01*
G02X65806Y210936I0J-400D01*
G03X71334Y206889I3194J-1436D01*
G02X72000Y206590I266J-299D01*
G01Y202410D01*
G02X71334Y202111I-400J0D01*
G03X70106Y196177I-2334J-2611D01*
G02X70515Y195515I126J-380D01*
G01X63667Y188667D01*
Y182976D01*
X37736D01*
G03X36844Y183698I-3129J-2953D01*
G02Y184381I208J341D01*
G03X30305Y188129I-2238J3674D01*
G02X29709Y187788I-400J8D01*
G03X25360Y180365I-2111J-3749D01*
G02Y179682I-208J-342D01*
G03X25361Y172334I2238J-3674D01*
G02Y171650I-208J-342D01*
G03X24526Y170987I2237J-3674D01*
G01X24467Y170928D01*
X23753D01*
X18048Y165223D01*
Y158277D01*
X18565Y157761D01*
G02X18251Y157079I-283J-283D01*
G03X25593Y151041I-653J-8276D01*
G02X25978Y151548I385J107D01*
G01X34723D01*
X42952Y159777D01*
Y172777D01*
X44747Y174572D01*
X63667D01*
Y159749D01*
X31658Y127740D01*
Y113658D01*
X10000Y92000D01*
Y63022D01*
G02X9409Y62671I-400J0D01*
G03Y59329I-909J-1671D01*
G02X10000Y58978I191J-351D01*
G01Y45022D01*
G02X9409Y44671I-400J0D01*
G03X10174Y42098I-909J-1671D01*
G02X10809Y42191I352J-190D01*
G01X16533Y36467D01*
X16543Y36402D01*
G03X19902Y33043I3957J598D01*
G01X19967Y33033D01*
X40891Y12109D01*
X155109D01*
X156712Y13712D01*
X156848Y13626D01*
G03X162374Y19152I2152J3374D01*
G01X162288Y19288D01*
X189500Y46500D01*
Y181000D01*
X184000Y186500D01*
X176000D01*
X167500Y195000D01*
Y214500D01*
X188000D01*
X195000Y207500D01*
Y9500D01*
X187500Y2000D01*
X9500D01*
G37*
G36*
G01X42145Y13855D02*
X22469Y33531D01*
G02X22521Y34140I283J283D01*
G03X17640Y39021I-2021J2860D01*
G02X17031Y38969I-326J231D01*
G01X12000Y44000D01*
Y90000D01*
X34500Y112500D01*
Y127000D01*
X66130Y158630D01*
Y166808D01*
G02X66620Y167197I400J-1D01*
G03Y170903I430J1853D01*
G02X66130Y171292I-90J390D01*
G01Y174572D01*
X71783D01*
X75259Y178048D01*
X87277D01*
X87413Y177913D01*
G03X91785Y178132I2087J2087D01*
G01X92093Y178508D01*
X95781D01*
X97548Y176741D01*
Y170741D01*
X101741Y166548D01*
X110277D01*
X112413Y164413D01*
G03X116587Y168587I2087J2087D01*
G01X113424Y171750D01*
X116087Y174413D01*
G03X114764Y179351I-2087J2087D01*
G02X114514Y179923I104J386D01*
G03X113681Y184110I-3014J1577D01*
G03X110273Y185798I-1681J890D01*
G02X109628Y185683I-363J168D01*
G01X100228Y195083D01*
G02X100373Y195741I283J283D01*
G03X97910Y203351I-1372J3759D01*
G02X97401Y203736I-109J385D01*
G01Y205264D01*
G02X97910Y205649I400J0D01*
G03X95003Y209293I1090J3851D01*
G02X94321Y208989I-399J-21D01*
G01X92897Y210414D01*
X92883Y210468D01*
G03X88032Y205617I-3883J-968D01*
G01X88086Y205603D01*
X89511Y204179D01*
G02X89207Y203497I-283J-283D01*
G03X90090Y195649I-206J-3997D01*
G02X90598Y195264I108J-385D01*
G01Y195091D01*
X98095Y187594D01*
G02X97812Y186912I-283J-282D01*
G01X91325D01*
X90868Y187285D01*
G03X86913Y187087I-1868J-2285D01*
G01X86277Y186452D01*
X71777D01*
X68301Y182976D01*
X66130D01*
Y186630D01*
X67441Y187941D01*
G02X68119Y187717I282J-283D01*
G03X70283Y189881I1881J283D01*
G02X70059Y190559I59J396D01*
G01X74500Y195000D01*
Y213000D01*
X70941D01*
G03X67059I-1941J-3500D01*
G01X62500D01*
X60000Y210500D01*
X34541D01*
G03X27663I-3439J-4295D01*
G01X2000D01*
Y214900D01*
X165500D01*
Y193500D01*
X174500Y184500D01*
X183000D01*
X187500Y180000D01*
Y48000D01*
X160290Y20790D01*
X160175Y20826D01*
G03X155174Y15825I-1175J-3826D01*
G01X155210Y15710D01*
X153355Y13855D01*
X152441D01*
G02X152129Y14504I1J400D01*
G03X145871I-3129J2496D01*
G02X145559Y13855I-313J-249D01*
G01X142441D01*
G02X142129Y14504I1J400D01*
G03X135871I-3129J2496D01*
G02X135559Y13855I-313J-249D01*
G01X132441D01*
G02X132129Y14504I1J400D01*
G03X125871I-3129J2496D01*
G02X125559Y13855I-313J-249D01*
G01X122441D01*
G02X122129Y14504I1J400D01*
G03X115871I-3129J2496D01*
G02X115559Y13855I-313J-249D01*
G01X112441D01*
G02X112129Y14504I1J400D01*
G03X105871I-3129J2496D01*
G02X105559Y13855I-313J-249D01*
G01X102441D01*
G02X102129Y14504I1J400D01*
G03X95871I-3129J2496D01*
G02X95559Y13855I-313J-249D01*
G01X92441D01*
G02X92129Y14504I1J400D01*
G03X85871I-3129J2496D01*
G02X85559Y13855I-313J-249D01*
G01X82441D01*
G02X82129Y14504I1J400D01*
G03X75871I-3129J2496D01*
G02X75559Y13855I-313J-249D01*
G01X72441D01*
G02X72129Y14504I1J400D01*
G03X65871I-3129J2496D01*
G02X65559Y13855I-313J-249D01*
G01X42145D01*
G37*
%LPC*%
G75*
G36*
G01X94345Y110989D02*
G03X93761Y110881I-243J-318D01*
G02X94380Y114596I-4261J2619D01*
G03X94897Y114304I390J88D01*
G02X94345Y110989I603J-1804D01*
G37*
G36*
G01X117261Y93057D02*
G03X116739I-261J-303D01*
G02Y95943I-1239J1443D01*
G03X117261I261J303D01*
G02X119739I1239J-1443D01*
G03X120261I261J303D01*
G02X122739I1239J-1443D01*
G03X123261I261J303D01*
G02X125739I1239J-1443D01*
G03X126261I261J303D01*
G02Y93057I1239J-1443D01*
G03X125739I-261J-303D01*
G02X123261I-1239J1443D01*
G03X122739I-261J-303D01*
G02X120261I-1239J1443D01*
G03X119739I-261J-303D01*
G02X117261I-1239J1443D01*
G37*
G36*
G01X103215Y83657D02*
G03X102954Y84178I-375J138D01*
G02X105285Y85343I546J1822D01*
G03X105546Y84822I375J-138D01*
G02X106810Y82417I-546J-1822D01*
G03X107158Y81895I381J-123D01*
G02X105190Y80583I-158J-1895D01*
G03X104842Y81105I-381J123D01*
G02X103215Y83657I158J1895D01*
G37*
G36*
G01X133821Y78106D02*
G03X133387Y77759I-38J-398D01*
G02X131679Y79894I-1887J241D01*
G03X132113Y80241I38J398D01*
G02X133821Y78106I1887J-241D01*
G37*
G36*
G01X140900Y77590D02*
G03X141090Y77400I200J10D01*
G02X139100Y75410I-90J-1900D01*
G03X138910Y75600I-200J-10D01*
G02X140900Y77590I90J1900D01*
G37*
G36*
G01X145741Y69613D02*
G03X145394Y69179I51J-396D01*
G02X143259Y70887I-1894J-179D01*
G03X143606Y71321I-51J396D01*
G02X145679Y73394I1894J179D01*
G03X146113Y73741I38J398D01*
G02X147821Y71606I1887J-241D01*
G03X147387Y71259I-38J-398D01*
G02X145741Y69613I-1887J241D01*
G37*
G36*
G01X130090Y49900D02*
G02X131897Y47860I-90J-1900D01*
G02X129603Y46140I-397J-1860D01*
G02X128100Y47910I397J1860D01*
G03X127910Y48100I-200J-10D01*
G02X126103Y50140I90J1900D01*
G02X124603Y52140I397J1860D01*
G02X123103Y54140I397J1860D01*
G02X121603Y56140I397J1860D01*
G02X123897Y57860I397J1860D01*
G02X125397Y55860I-397J-1860D01*
G02X126897Y53860I-397J-1860D01*
G02X128397Y51860I-397J-1860D01*
G02X129900Y50090I-397J-1860D01*
G03X130090Y49900I200J10D01*
G37*
G36*
G01X153354Y25574D02*
G03X153496Y25336I195J-45D01*
G02X151146Y23926I-496J-1836D01*
G03X151004Y24164I-195J45D01*
G02X153354Y25574I496J1836D01*
G37*
G36*
G01X118053Y86734D02*
G02X117642Y85092I1447J-1235D01*
G03X116947Y85266I-391J-86D01*
G02X113600Y86410I-1447J1234D01*
G03X113410Y86600I-200J-10D01*
G02X115400Y88590I90J1900D01*
G03X115590Y88400I200J10D01*
G02X117358Y86908I-90J-1900D01*
G03X118053Y86734I391J86D01*
G37*
G36*
G01X113900Y57410D02*
G02X111910Y59400I-1900J90D01*
G03X112100Y59590I-10J200D01*
G02X113910Y61400I1900J-90D01*
G03X114100Y61590I-10J200D01*
G02X116029Y63402I1900J-90D01*
G03X116376Y64010I6J400D01*
G02X117971Y63098I1624J990D01*
G03X117624Y62490I-6J-400D01*
G02X116090Y59600I-1624J-990D01*
G03X115900Y59410I10J-200D01*
G02X114090Y57600I-1900J90D01*
G03X113900Y57410I10J-200D01*
G37*
G36*
G01X75000Y21548D02*
X41277D01*
X32048Y30777D01*
Y33271D01*
G03X31531Y33653I-400J0D01*
G02Y40347I-1031J3347D01*
G03X32048Y40729I117J382D01*
G01Y41277D01*
X30325Y43001D01*
X30249Y43006D01*
G02X26595Y47878I251J3994D01*
G03X25922Y48248I-390J87D01*
G01X24499Y46825D01*
X24494Y46749D01*
G02X20249Y50994I-3994J251D01*
G01X20325Y50999D01*
X21748Y52422D01*
G03X21378Y53095I-283J283D01*
G02X20249Y60994I-877J3905D01*
G01X20325Y60999D01*
X21748Y62422D01*
G03X21378Y63095I-283J283D01*
G02X24211Y65501I-878J3905D01*
G03X24582Y64952I371J-149D01*
G01X26418D01*
G03X26789Y65501I0J400D01*
G02X34211I3711J1499D01*
G03X34582Y64952I371J-149D01*
G01X36723D01*
X41518Y60156D01*
G03X42191Y60354I282J283D01*
G02X44142Y58050I1859J-404D01*
G03X43952Y57850I10J-200D01*
G01Y52050D01*
G03X44142Y51850I200J0D01*
G02Y48050I-92J-1900D01*
G03X43952Y47850I10J-200D01*
G01Y35723D01*
X46223Y33452D01*
X73000D01*
G02X75832Y31332I0J-2952D01*
G02X77171Y26500I-832J-2832D01*
G02X75000Y21548I-2171J-2000D01*
G37*
G54D28*
X79000Y199500D03*
Y209500D03*
G54D26*
X69000Y7000D03*
X79000D03*
X89000D03*
X99000D03*
X109000D03*
X119000D03*
X129000D03*
X139000D03*
X149000D03*
X159000D03*
X109000Y199500D03*
Y209500D03*
X119000Y199500D03*
Y209500D03*
X129000Y199500D03*
Y209500D03*
X139000Y199500D03*
Y209500D03*
X149000Y199500D03*
Y209500D03*
X159000Y199500D03*
Y209500D03*
G54D27*
X18500Y79000D03*
X22200Y75700D03*
Y83000D03*
X32000Y88000D03*
Y93000D03*
X31000Y98000D03*
X83950Y77950D03*
X89300Y48800D03*
X89000Y65000D03*
X89300Y75200D03*
Y85700D03*
X105500Y146500D03*
X113700Y31800D03*
X113000Y104500D03*
X116050Y188450D03*
X121500Y31500D03*
X124500Y83500D03*
X122500Y108500D03*
X124750Y137250D03*
X127000Y151500D03*
X129000Y108500D03*
X130000Y166500D03*
X132000Y176500D03*
X138500Y34000D03*
X136000Y44000D03*
X135700Y107200D03*
X135450Y188450D03*
X145700Y107200D03*
X147800Y31300D03*
X150500Y77000D03*
X157000Y28000D03*
X153500Y105500D03*
X155500Y111000D03*
X159000Y146500D03*
Y171500D03*
X167200Y39200D03*
X165700Y72200D03*
Y79300D03*
Y92200D03*
X166050Y138550D03*
Y154450D03*
Y163550D03*
X166000Y179000D03*
X173500Y155000D03*
Y163000D03*
X181950Y46950D03*
X184500Y114500D03*
Y123500D03*
Y132500D03*
G54D25*
X31102Y141795D03*
G54D24*
X17598Y199197D03*
%LPD*%
G75*
G54D10*
X15000Y15000D03*
Y121500D03*
X182000Y15000D03*
Y201500D03*
G54D20*
G01X957700Y-284700D02*
Y-455000D01*
G01X1208100Y-284300D02*
X1208400D01*
Y-454800D01*
G54D11*
G01X89000Y209500D02*
X94000Y204500D01*
Y196500D01*
X109000Y181500D01*
X111500D01*
X8500Y43000D03*
Y61000D03*
X18500Y79000D03*
X22200Y75700D03*
Y83000D03*
X27800Y75800D03*
Y82700D03*
X27500Y87000D03*
Y95000D03*
Y102500D03*
X31000Y79000D03*
X32000Y88000D03*
Y93000D03*
X31000Y98000D03*
X43100Y134500D03*
X44050Y49950D03*
Y59950D03*
X43600Y213000D03*
X67050Y169050D03*
X62700Y168800D03*
X73000Y26500D03*
Y30500D03*
X70300Y47300D03*
X70200Y55200D03*
X72700Y77200D03*
X70700Y102800D03*
Y113200D03*
X70000Y188000D03*
X75000Y24500D03*
Y28500D03*
X83700Y48700D03*
Y68700D03*
X83500Y65000D03*
X83950Y77950D03*
X83700Y85700D03*
X89300Y48800D03*
X89000Y65000D03*
X89300Y75200D03*
Y85700D03*
X89500Y180000D03*
X89000Y185000D03*
X92000Y68000D03*
X95500Y112500D03*
X103500Y86000D03*
X107000Y80000D03*
X105000Y83000D03*
X105450Y112550D03*
X105500Y146500D03*
X108450Y174450D03*
X113650Y26500D03*
X113700Y31800D03*
X112000Y57500D03*
X114000Y59500D03*
X116000Y61500D03*
X115500Y86500D03*
X113500Y88500D03*
X112537Y94537D03*
X115500Y94500D03*
X113000Y104500D03*
X111000Y116000D03*
X114500Y166500D03*
X114000Y176500D03*
X112000Y185000D03*
X111500Y181500D03*
X116050Y188450D03*
X121500Y31500D03*
X122000Y58000D03*
X118000Y65000D03*
X119500Y85500D03*
X118500Y94500D03*
X121500D03*
X118000Y104000D03*
X119500Y116000D03*
X126500Y22500D03*
X128000Y50000D03*
X126500Y52000D03*
X123500Y56000D03*
X125000Y54000D03*
X124500Y83500D03*
X127500Y94500D03*
X124500D03*
X127500Y103500D03*
X122500Y108500D03*
X126000Y116000D03*
X124750Y137250D03*
X127000Y151500D03*
X132500Y22500D03*
X129863Y43363D03*
X130000Y48000D03*
X131500Y46000D03*
Y78000D03*
X134000Y80000D03*
X129000Y108500D03*
X132500Y116000D03*
X130000Y166500D03*
X132000Y176500D03*
X138500Y23000D03*
Y34000D03*
X136000Y44000D03*
X139000Y77500D03*
X135700Y107200D03*
X135450Y188450D03*
X144500Y23000D03*
X143500Y69000D03*
X141000Y75500D03*
X145500Y71500D03*
X145700Y107200D03*
X142500Y116000D03*
X151500Y26000D03*
X147800Y31300D03*
X148000Y73500D03*
X150500Y77000D03*
X153000Y23500D03*
X157000Y28000D03*
X153000Y69000D03*
X153500Y105500D03*
X155500Y111000D03*
X159000Y146500D03*
Y171500D03*
X167200Y39200D03*
X165700Y72200D03*
Y79300D03*
Y92200D03*
X169450Y108050D03*
Y117550D03*
Y126550D03*
X169500Y143000D03*
X166050Y138550D03*
Y154450D03*
Y163550D03*
X170000Y175500D03*
X166000Y179000D03*
X175750Y43000D03*
Y49500D03*
X171300Y72200D03*
Y79300D03*
Y92200D03*
X173500Y143000D03*
Y155000D03*
Y163000D03*
Y175500D03*
X181950Y46950D03*
Y70050D03*
X184500Y114500D03*
Y123500D03*
Y132500D03*
G54D21*
G01X-440500Y-515000D02*
Y-525000D01*
G01D02*
X1759500D01*
Y1175000D01*
G01D02*
X-440500D01*
Y-515000D01*
G01X-418925Y-295000D02*
X-411050Y-270000D01*
X-403175Y-295000D01*
G01X-406010Y-286250D02*
X-416090D01*
G01X-390500Y-95000D02*
X-420500D01*
G01X-408530Y78334D02*
X-407270Y79583D01*
X-406325Y81666D01*
X-405695Y84584D01*
X-406325Y87083D01*
X-407585Y88750D01*
X-409790Y90000D01*
X-418295D01*
Y65000D01*
X-407900D01*
X-405695Y66666D01*
X-404435Y69167D01*
X-403805Y72083D01*
X-404435Y74999D01*
X-406325Y77500D01*
X-408530Y78334D01*
X-418295D01*
G01X-390500Y335000D02*
X-420500D01*
G01X-404120Y487916D02*
X-406010Y489167D01*
X-408215Y490000D01*
X-410735D01*
X-413570Y488750D01*
X-415775Y486667D01*
X-417350Y484166D01*
X-418610Y480000D01*
X-418925Y476250D01*
X-418295Y472500D01*
X-417350Y470000D01*
X-415460Y467499D01*
X-413255Y465833D01*
X-411050Y465000D01*
X-408845D01*
X-406640Y465833D01*
X-404750Y467083D01*
X-403175Y468749D01*
G01X-390500Y765000D02*
X-420500D01*
G01X-417980Y945000D02*
Y970000D01*
X-411680D01*
X-409160Y968750D01*
X-407270Y967083D01*
X-405695Y964584D01*
X-404435Y961666D01*
X-404120Y957500D01*
X-404435Y953333D01*
X-405695Y950416D01*
X-407270Y947916D01*
X-409160Y946250D01*
X-411680Y945000D01*
X-417980D01*
G01X-390500Y1105000D02*
Y-455000D01*
X-330500D01*
G01X-390500Y1105000D02*
X-340500D01*
G01X-360500D02*
X-170500D01*
G01X-330500Y-455000D02*
X1189500D01*
G01X-167270Y-505000D02*
Y-480000D01*
X-178925Y-497917D01*
X-163175D01*
G01X-167270Y1125000D02*
Y1150000D01*
X-178925Y1132083D01*
X-163175D01*
G01X-170500Y1105000D02*
X1699500D01*
G01X-149750Y951500D02*
X-155950D01*
Y964000D01*
X-149750D01*
G01X-152230Y957958D02*
X-155950D01*
G01X-140450Y964000D02*
Y951500D01*
G01X-144015Y964000D02*
X-136885D01*
G01X-131305Y951500D02*
Y964000D01*
G01X-124795D02*
Y951500D01*
G01Y957750D02*
X-131305D01*
G01X-117510Y964000D02*
X-113790D01*
G01X-115650D02*
Y951500D01*
G01X-117510D02*
X-113790D01*
G01X-105110Y964000D02*
X-101390D01*
G01X-103250D02*
Y951500D01*
G01X-105110D02*
X-101390D01*
G01X-87440Y962958D02*
X-88370Y963583D01*
X-89455Y964000D01*
X-90695D01*
X-92090Y963375D01*
X-93175Y962333D01*
X-93950Y961083D01*
X-94570Y959000D01*
X-94725Y957125D01*
X-94415Y955250D01*
X-93950Y954000D01*
X-93020Y952750D01*
X-91935Y951917D01*
X-90850Y951500D01*
X-89765D01*
X-88680Y951917D01*
X-87750Y952541D01*
X-86975Y953375D01*
G01X-83100Y947333D02*
X-73800D01*
G01X-63160Y958000D02*
X-62540Y958625D01*
X-62075Y959666D01*
X-61765Y961125D01*
X-62075Y962375D01*
X-62695Y963208D01*
X-63780Y963833D01*
X-67965D01*
Y951333D01*
X-62850D01*
X-61765Y952166D01*
X-61145Y953416D01*
X-60835Y954875D01*
X-61145Y956333D01*
X-62075Y957583D01*
X-63160Y958000D01*
X-67965D01*
G01X-52000Y951333D02*
X-53240Y951541D01*
X-54325Y952374D01*
X-55255Y953625D01*
X-55875Y955083D01*
X-56185Y956750D01*
Y958416D01*
X-55875Y960083D01*
X-55255Y961541D01*
X-54325Y962791D01*
X-53240Y963625D01*
X-52000Y963833D01*
X-50760Y963625D01*
X-49675Y962791D01*
X-48745Y961541D01*
X-48125Y960083D01*
X-47815Y958416D01*
Y956750D01*
X-48125Y955083D01*
X-48745Y953625D01*
X-49675Y952374D01*
X-50760Y951541D01*
X-52000Y951333D01*
G01X-39600Y963833D02*
Y951333D01*
G01X-43165Y963833D02*
X-36035D01*
G01X0Y0D02*
X197000D01*
Y216500D01*
X0D01*
Y0D01*
G01X99500Y-455000D02*
Y-505000D01*
G01Y1105000D02*
Y1155000D01*
G01X362020Y-500000D02*
X363910Y-502917D01*
X366430Y-504583D01*
X369265Y-505000D01*
X371785Y-504583D01*
X374305Y-502501D01*
X375880Y-500000D01*
X376195Y-497500D01*
X375565Y-494584D01*
X373360Y-492500D01*
X371155Y-491666D01*
X368320D01*
G01X371155D02*
X373045Y-490417D01*
X374620Y-488334D01*
X375250Y-485834D01*
X374620Y-483333D01*
X373045Y-481250D01*
X370210Y-480000D01*
X367375Y-480417D01*
X364540Y-482084D01*
G01X362020Y1130000D02*
X363910Y1127083D01*
X366430Y1125417D01*
X369265Y1125000D01*
X371785Y1125417D01*
X374305Y1127499D01*
X375880Y1130000D01*
X376195Y1132500D01*
X375565Y1135416D01*
X373360Y1137500D01*
X371155Y1138334D01*
X368320D01*
G01X371155D02*
X373045Y1139583D01*
X374620Y1141666D01*
X375250Y1144166D01*
X374620Y1146667D01*
X373045Y1148750D01*
X370210Y1150000D01*
X367375Y1149583D01*
X364540Y1147916D01*
G01X639500Y-505000D02*
Y-455000D01*
G01Y1105000D02*
Y1155000D01*
G01X1711300Y-284700D02*
X701300D01*
G01X701400Y-335000D02*
X1207700D01*
G01X717847Y-298500D02*
Y-303875D01*
X718220Y-305000D01*
X718967Y-305750D01*
X719900Y-306000D01*
X720833Y-305750D01*
X721580Y-305000D01*
X721953Y-303875D01*
Y-298500D01*
G01X725253Y-306000D02*
Y-298500D01*
X729547Y-306000D01*
Y-298500D01*
G01X733033D02*
Y-306000D01*
X736767D01*
G01X744267D02*
X740533D01*
Y-298500D01*
X744267D01*
G01X742773Y-302125D02*
X740533D01*
G01X747940Y-305000D02*
X748687Y-305625D01*
X749527Y-306000D01*
X750273D01*
X751020Y-305625D01*
X751580Y-305000D01*
X751860Y-304125D01*
X751673Y-303250D01*
X751207Y-302500D01*
X750367Y-302000D01*
X749247Y-301750D01*
X748593Y-301250D01*
X748313Y-300375D01*
X748500Y-299500D01*
X748967Y-298875D01*
X749620Y-298500D01*
X750273D01*
X750927Y-298750D01*
X751487Y-299375D01*
G01X755440Y-305000D02*
X756187Y-305625D01*
X757027Y-306000D01*
X757773D01*
X758520Y-305625D01*
X759080Y-305000D01*
X759360Y-304125D01*
X759173Y-303250D01*
X758707Y-302500D01*
X757867Y-302000D01*
X756747Y-301750D01*
X756093Y-301250D01*
X755813Y-300375D01*
X756000Y-299500D01*
X756467Y-298875D01*
X757120Y-298500D01*
X757773D01*
X758427Y-298750D01*
X758987Y-299375D01*
G01X772400Y-306000D02*
X771653Y-305875D01*
X771000Y-305375D01*
X770440Y-304625D01*
X770067Y-303750D01*
X769880Y-302750D01*
Y-301750D01*
X770067Y-300750D01*
X770440Y-299875D01*
X771000Y-299125D01*
X771653Y-298625D01*
X772400Y-298500D01*
X773147Y-298625D01*
X773800Y-299125D01*
X774360Y-299875D01*
X774733Y-300750D01*
X774920Y-301750D01*
Y-302750D01*
X774733Y-303750D01*
X774360Y-304625D01*
X773800Y-305375D01*
X773147Y-305875D01*
X772400Y-306000D01*
G01X779900Y-298500D02*
Y-306000D01*
G01X777753Y-298500D02*
X782047D01*
G01X785440Y-306000D02*
Y-298500D01*
G01X789360D02*
Y-306000D01*
G01Y-302250D02*
X785440D01*
G01X796767Y-306000D02*
X793033D01*
Y-298500D01*
X796767D01*
G01X795273Y-302125D02*
X793033D01*
G01X800533Y-306000D02*
Y-298500D01*
X802867D01*
X803613Y-298875D01*
X804080Y-299375D01*
X804267Y-300375D01*
X804080Y-301375D01*
X803520Y-302000D01*
X802867Y-302375D01*
X800533D01*
G01X802867D02*
X804267Y-306000D01*
G01X807100Y-298500D02*
X808407Y-306000D01*
X809900Y-298500D01*
X811393Y-306000D01*
X812700Y-298500D01*
G01X816280D02*
X818520D01*
G01X817400D02*
Y-306000D01*
G01X816280D02*
X818520D01*
G01X822940Y-305000D02*
X823687Y-305625D01*
X824527Y-306000D01*
X825273D01*
X826020Y-305625D01*
X826580Y-305000D01*
X826860Y-304125D01*
X826673Y-303250D01*
X826207Y-302500D01*
X825367Y-302000D01*
X824247Y-301750D01*
X823593Y-301250D01*
X823313Y-300375D01*
X823500Y-299500D01*
X823967Y-298875D01*
X824620Y-298500D01*
X825273D01*
X825927Y-298750D01*
X826487Y-299375D01*
G01X834267Y-306000D02*
X830533D01*
Y-298500D01*
X834267D01*
G01X832773Y-302125D02*
X830533D01*
G01X845440Y-305000D02*
X846187Y-305625D01*
X847027Y-306000D01*
X847773D01*
X848520Y-305625D01*
X849080Y-305000D01*
X849360Y-304125D01*
X849173Y-303250D01*
X848707Y-302500D01*
X847867Y-302000D01*
X846747Y-301750D01*
X846093Y-301250D01*
X845813Y-300375D01*
X846000Y-299500D01*
X846467Y-298875D01*
X847120Y-298500D01*
X847773D01*
X848427Y-298750D01*
X848987Y-299375D01*
G01X853033Y-306000D02*
Y-298500D01*
X855273D01*
X856020Y-298875D01*
X856580Y-299750D01*
X856767Y-300750D01*
X856580Y-301750D01*
X856113Y-302500D01*
X855273Y-302875D01*
X853033D01*
G01X864267Y-306000D02*
X860533D01*
Y-298500D01*
X864267D01*
G01X862773Y-302125D02*
X860533D01*
G01X871953Y-299125D02*
X871393Y-298750D01*
X870740Y-298500D01*
X869993D01*
X869153Y-298875D01*
X868500Y-299500D01*
X868033Y-300250D01*
X867660Y-301500D01*
X867567Y-302625D01*
X867753Y-303750D01*
X868033Y-304500D01*
X868593Y-305250D01*
X869247Y-305750D01*
X869900Y-306000D01*
X870553D01*
X871207Y-305750D01*
X871767Y-305375D01*
X872233Y-304875D01*
G01X876280Y-298500D02*
X878520D01*
G01X877400D02*
Y-306000D01*
G01X876280D02*
X878520D01*
G01X883127D02*
Y-298500D01*
X886673D01*
G01X885367Y-302125D02*
X883127D01*
G01X891280Y-298500D02*
X893520D01*
G01X892400D02*
Y-306000D01*
G01X891280D02*
X893520D01*
G01X901767D02*
X898033D01*
Y-298500D01*
X901767D01*
G01X900273Y-302125D02*
X898033D01*
G01X905347Y-306000D02*
Y-298500D01*
X907213D01*
X907960Y-298875D01*
X908520Y-299375D01*
X908987Y-300125D01*
X909360Y-301000D01*
X909453Y-302250D01*
X909360Y-303500D01*
X908987Y-304375D01*
X908520Y-305125D01*
X907960Y-305625D01*
X907213Y-306000D01*
X905347D01*
G01X725500Y-362500D02*
Y-370000D01*
G01X723353Y-362500D02*
X727647D01*
G01X733000Y-370000D02*
X732253Y-369875D01*
X731600Y-369375D01*
X731040Y-368625D01*
X730667Y-367750D01*
X730480Y-366750D01*
Y-365750D01*
X730667Y-364750D01*
X731040Y-363875D01*
X731600Y-363125D01*
X732253Y-362625D01*
X733000Y-362500D01*
X733747Y-362625D01*
X734400Y-363125D01*
X734960Y-363875D01*
X735333Y-364750D01*
X735520Y-365750D01*
Y-366750D01*
X735333Y-367750D01*
X734960Y-368625D01*
X734400Y-369375D01*
X733747Y-369875D01*
X733000Y-370000D01*
G01X738633Y-362500D02*
Y-370000D01*
X742367D01*
G01X749867D02*
X746133D01*
Y-362500D01*
X749867D01*
G01X748373Y-366125D02*
X746133D01*
G01X753633Y-370000D02*
Y-362500D01*
X755967D01*
X756713Y-362875D01*
X757180Y-363375D01*
X757367Y-364375D01*
X757180Y-365375D01*
X756620Y-366000D01*
X755967Y-366375D01*
X753633D01*
G01X755967D02*
X757367Y-370000D01*
G01X760667D02*
X763000Y-362500D01*
X765333Y-370000D01*
G01X764493Y-367375D02*
X761507D01*
G01X768353Y-370000D02*
Y-362500D01*
X772647Y-370000D01*
Y-362500D01*
G01X780053Y-363125D02*
X779493Y-362750D01*
X778840Y-362500D01*
X778093D01*
X777253Y-362875D01*
X776600Y-363500D01*
X776133Y-364250D01*
X775760Y-365500D01*
X775667Y-366625D01*
X775853Y-367750D01*
X776133Y-368500D01*
X776693Y-369250D01*
X777347Y-369750D01*
X778000Y-370000D01*
X778653D01*
X779307Y-369750D01*
X779867Y-369375D01*
X780333Y-368875D01*
G01X787367Y-370000D02*
X783633D01*
Y-362500D01*
X787367D01*
G01X785873Y-366125D02*
X783633D01*
G01X799473Y-367500D02*
X801713D01*
G01X800500Y-365875D02*
Y-369125D01*
G01X806320Y-370250D02*
X809680Y-362500D01*
G01X814287Y-367500D02*
X816713D01*
G01X820200Y-372500D02*
X825800D01*
G01X827700D02*
X833300D01*
G01X835200D02*
X840800D01*
G01X723447Y-350000D02*
Y-342500D01*
X725313D01*
X726060Y-342875D01*
X726620Y-343375D01*
X727087Y-344125D01*
X727460Y-345000D01*
X727553Y-346250D01*
X727460Y-347500D01*
X727087Y-348375D01*
X726620Y-349125D01*
X726060Y-349625D01*
X725313Y-350000D01*
X723447D01*
G01X731880Y-342500D02*
X734120D01*
G01X733000D02*
Y-350000D01*
G01X731880D02*
X734120D01*
G01X738073D02*
Y-342500D01*
X740500Y-348750D01*
X742927Y-342500D01*
Y-350000D01*
G01X749867D02*
X746133D01*
Y-342500D01*
X749867D01*
G01X748373Y-346125D02*
X746133D01*
G01X753353Y-350000D02*
Y-342500D01*
X757647Y-350000D01*
Y-342500D01*
G01X761040Y-349000D02*
X761787Y-349625D01*
X762627Y-350000D01*
X763373D01*
X764120Y-349625D01*
X764680Y-349000D01*
X764960Y-348125D01*
X764773Y-347250D01*
X764307Y-346500D01*
X763467Y-346000D01*
X762347Y-345750D01*
X761693Y-345250D01*
X761413Y-344375D01*
X761600Y-343500D01*
X762067Y-342875D01*
X762720Y-342500D01*
X763373D01*
X764027Y-342750D01*
X764587Y-343375D01*
G01X769380Y-342500D02*
X771620D01*
G01X770500D02*
Y-350000D01*
G01X769380D02*
X771620D01*
G01X778000D02*
X777253Y-349875D01*
X776600Y-349375D01*
X776040Y-348625D01*
X775667Y-347750D01*
X775480Y-346750D01*
Y-345750D01*
X775667Y-344750D01*
X776040Y-343875D01*
X776600Y-343125D01*
X777253Y-342625D01*
X778000Y-342500D01*
X778747Y-342625D01*
X779400Y-343125D01*
X779960Y-343875D01*
X780333Y-344750D01*
X780520Y-345750D01*
Y-346750D01*
X780333Y-347750D01*
X779960Y-348625D01*
X779400Y-349375D01*
X778747Y-349875D01*
X778000Y-350000D01*
G01X783353D02*
Y-342500D01*
X787647Y-350000D01*
Y-342500D01*
G01X791040Y-349000D02*
X791787Y-349625D01*
X792627Y-350000D01*
X793373D01*
X794120Y-349625D01*
X794680Y-349000D01*
X794960Y-348125D01*
X794773Y-347250D01*
X794307Y-346500D01*
X793467Y-346000D01*
X792347Y-345750D01*
X791693Y-345250D01*
X791413Y-344375D01*
X791600Y-343500D01*
X792067Y-342875D01*
X792720Y-342500D01*
X793373D01*
X794027Y-342750D01*
X794587Y-343375D01*
G01X805667Y-350000D02*
X808000Y-342500D01*
X810333Y-350000D01*
G01X809493Y-347375D02*
X806507D01*
G01X813633Y-350000D02*
Y-342500D01*
X815967D01*
X816713Y-342875D01*
X817180Y-343375D01*
X817367Y-344375D01*
X817180Y-345375D01*
X816620Y-346000D01*
X815967Y-346375D01*
X813633D01*
G01X815967D02*
X817367Y-350000D01*
G01X824867D02*
X821133D01*
Y-342500D01*
X824867D01*
G01X823373Y-346125D02*
X821133D01*
G01X836880Y-342500D02*
X839120D01*
G01X838000D02*
Y-350000D01*
G01X836880D02*
X839120D01*
G01X843353D02*
Y-342500D01*
X847647Y-350000D01*
Y-342500D01*
G01X858073Y-350000D02*
Y-342500D01*
X860500Y-348750D01*
X862927Y-342500D01*
Y-350000D01*
G01X866880Y-342500D02*
X869120D01*
G01X868000D02*
Y-350000D01*
G01X866880D02*
X869120D01*
G01X873633Y-342500D02*
Y-350000D01*
X877367D01*
G01X881133Y-342500D02*
Y-350000D01*
X884867D01*
G01X888820Y-350250D02*
X892180Y-342500D01*
G01X895573Y-350000D02*
Y-342500D01*
X898000Y-348750D01*
X900427Y-342500D01*
Y-350000D01*
G01X903073D02*
Y-342500D01*
X905500Y-348750D01*
X907927Y-342500D01*
Y-350000D01*
G01X922965Y1145833D02*
X924855Y1148333D01*
X927060Y1149583D01*
X929580Y1150000D01*
X932730Y1149167D01*
X934935Y1147083D01*
X935565Y1144584D01*
X935250Y1142083D01*
X933990Y1140000D01*
X927690Y1135833D01*
X924855Y1132917D01*
X922965Y1128749D01*
X922335Y1125000D01*
X935565D01*
G01X952965Y-484167D02*
X954855Y-481667D01*
X957060Y-480417D01*
X959580Y-480000D01*
X962730Y-480833D01*
X964935Y-482917D01*
X965565Y-485416D01*
X965250Y-487917D01*
X963990Y-490000D01*
X957690Y-494167D01*
X954855Y-497083D01*
X952965Y-501251D01*
X952335Y-505000D01*
X965565D01*
G01X957700Y-455000D02*
Y-445000D01*
G01Y-345000D02*
Y-445000D01*
G01Y-425000D02*
X1137700D01*
G01X957700Y-395000D02*
X1137700D01*
G01X957700Y-365000D02*
X1137700D01*
G01X957700Y-345000D02*
Y-305000D01*
G01X969380Y-437500D02*
X971620D01*
G01X970500D02*
Y-445000D01*
G01X969380D02*
X971620D01*
G01X976040Y-444000D02*
X976787Y-444625D01*
X977627Y-445000D01*
X978373D01*
X979120Y-444625D01*
X979680Y-444000D01*
X979960Y-443125D01*
X979773Y-442250D01*
X979307Y-441500D01*
X978467Y-441000D01*
X977347Y-440750D01*
X976693Y-440250D01*
X976413Y-439375D01*
X976600Y-438500D01*
X977067Y-437875D01*
X977720Y-437500D01*
X978373D01*
X979027Y-437750D01*
X979587Y-438375D01*
G01X983540Y-444000D02*
X984287Y-444625D01*
X985127Y-445000D01*
X985873D01*
X986620Y-444625D01*
X987180Y-444000D01*
X987460Y-443125D01*
X987273Y-442250D01*
X986807Y-441500D01*
X985967Y-441000D01*
X984847Y-440750D01*
X984193Y-440250D01*
X983913Y-439375D01*
X984100Y-438500D01*
X984567Y-437875D01*
X985220Y-437500D01*
X985873D01*
X986527Y-437750D01*
X987087Y-438375D01*
G01X990947Y-437500D02*
Y-442875D01*
X991320Y-444000D01*
X992067Y-444750D01*
X993000Y-445000D01*
X993933Y-444750D01*
X994680Y-444000D01*
X995053Y-442875D01*
Y-437500D01*
G01X1002367Y-445000D02*
X998633D01*
Y-437500D01*
X1002367D01*
G01X1000873Y-441125D02*
X998633D01*
G01X1005947Y-445000D02*
Y-437500D01*
X1007813D01*
X1008560Y-437875D01*
X1009120Y-438375D01*
X1009587Y-439125D01*
X1009960Y-440000D01*
X1010053Y-441250D01*
X1009960Y-442500D01*
X1009587Y-443375D01*
X1009120Y-444125D01*
X1008560Y-444625D01*
X1007813Y-445000D01*
X1005947D01*
G01X972367Y-415000D02*
X968633D01*
Y-407500D01*
X972367D01*
G01X970873Y-411125D02*
X968633D01*
G01X975853Y-415000D02*
Y-407500D01*
X980147Y-415000D01*
Y-407500D01*
G01X986060Y-411250D02*
X987927D01*
Y-413500D01*
X987367Y-414250D01*
X986713Y-414750D01*
X985780Y-415000D01*
X984847Y-414750D01*
X984193Y-414250D01*
X983633Y-413500D01*
X983260Y-412625D01*
X983073Y-411625D01*
Y-410750D01*
X983260Y-410000D01*
X983633Y-409125D01*
X984193Y-408375D01*
X984753Y-407875D01*
X985500Y-407500D01*
X986153D01*
X986900Y-407750D01*
X987460Y-408250D01*
G01X991133Y-415000D02*
Y-407500D01*
X993467D01*
X994213Y-407875D01*
X994680Y-408375D01*
X994867Y-409375D01*
X994680Y-410375D01*
X994120Y-411000D01*
X993467Y-411375D01*
X991133D01*
G01X993467D02*
X994867Y-415000D01*
G01X1001060Y-411250D02*
X1002927D01*
Y-413500D01*
X1002367Y-414250D01*
X1001713Y-414750D01*
X1000780Y-415000D01*
X999847Y-414750D01*
X999193Y-414250D01*
X998633Y-413500D01*
X998260Y-412625D01*
X998073Y-411625D01*
Y-410750D01*
X998260Y-410000D01*
X998633Y-409125D01*
X999193Y-408375D01*
X999753Y-407875D01*
X1000500Y-407500D01*
X1001153D01*
X1001900Y-407750D01*
X1002460Y-408250D01*
G01X972553Y-378125D02*
X971993Y-377750D01*
X971340Y-377500D01*
X970593D01*
X969753Y-377875D01*
X969100Y-378500D01*
X968633Y-379250D01*
X968260Y-380500D01*
X968167Y-381625D01*
X968353Y-382750D01*
X968633Y-383500D01*
X969193Y-384250D01*
X969847Y-384750D01*
X970500Y-385000D01*
X971153D01*
X971807Y-384750D01*
X972367Y-384375D01*
X972833Y-383875D01*
G01X976040Y-385000D02*
Y-377500D01*
G01X979960D02*
Y-385000D01*
G01Y-381250D02*
X976040D01*
G01X987367Y-385000D02*
X983633D01*
Y-377500D01*
X987367D01*
G01X985873Y-381125D02*
X983633D01*
G01X995053Y-378125D02*
X994493Y-377750D01*
X993840Y-377500D01*
X993093D01*
X992253Y-377875D01*
X991600Y-378500D01*
X991133Y-379250D01*
X990760Y-380500D01*
X990667Y-381625D01*
X990853Y-382750D01*
X991133Y-383500D01*
X991693Y-384250D01*
X992347Y-384750D01*
X993000Y-385000D01*
X993653D01*
X994307Y-384750D01*
X994867Y-384375D01*
X995333Y-383875D01*
G01X998447Y-385000D02*
Y-377500D01*
G01X1001993D02*
X998447Y-382125D01*
G01X1002553Y-385000D02*
X1000033Y-380000D01*
G01X1009867Y-385000D02*
X1006133D01*
Y-377500D01*
X1009867D01*
G01X1008373Y-381125D02*
X1006133D01*
G01X1013447Y-385000D02*
Y-377500D01*
X1015313D01*
X1016060Y-377875D01*
X1016620Y-378375D01*
X1017087Y-379125D01*
X1017460Y-380000D01*
X1017553Y-381250D01*
X1017460Y-382500D01*
X1017087Y-383375D01*
X1016620Y-384125D01*
X1016060Y-384625D01*
X1015313Y-385000D01*
X1013447D01*
G01X968447Y-355000D02*
Y-347500D01*
X970313D01*
X971060Y-347875D01*
X971620Y-348375D01*
X972087Y-349125D01*
X972460Y-350000D01*
X972553Y-351250D01*
X972460Y-352500D01*
X972087Y-353375D01*
X971620Y-354125D01*
X971060Y-354625D01*
X970313Y-355000D01*
X968447D01*
G01X976133D02*
Y-347500D01*
X978467D01*
X979213Y-347875D01*
X979680Y-348375D01*
X979867Y-349375D01*
X979680Y-350375D01*
X979120Y-351000D01*
X978467Y-351375D01*
X976133D01*
G01X978467D02*
X979867Y-355000D01*
G01X983167D02*
X985500Y-347500D01*
X987833Y-355000D01*
G01X986993Y-352375D02*
X984007D01*
G01X990200Y-347500D02*
X991507Y-355000D01*
X993000Y-347500D01*
X994493Y-355000D01*
X995800Y-347500D01*
G01X998353Y-355000D02*
Y-347500D01*
X1002647Y-355000D01*
Y-347500D01*
G01X1003540Y-324000D02*
X1004287Y-324625D01*
X1005127Y-325000D01*
X1005873D01*
X1006620Y-324625D01*
X1007180Y-324000D01*
X1007460Y-323125D01*
X1007273Y-322250D01*
X1006807Y-321500D01*
X1005967Y-321000D01*
X1004847Y-320750D01*
X1004193Y-320250D01*
X1003913Y-319375D01*
X1004100Y-318500D01*
X1004567Y-317875D01*
X1005220Y-317500D01*
X1005873D01*
X1006527Y-317750D01*
X1007087Y-318375D01*
G01X1011880Y-317500D02*
X1014120D01*
G01X1013000D02*
Y-325000D01*
G01X1011880D02*
X1014120D01*
G01X1021060Y-321250D02*
X1022927D01*
Y-323500D01*
X1022367Y-324250D01*
X1021713Y-324750D01*
X1020780Y-325000D01*
X1019847Y-324750D01*
X1019193Y-324250D01*
X1018633Y-323500D01*
X1018260Y-322625D01*
X1018073Y-321625D01*
Y-320750D01*
X1018260Y-320000D01*
X1018633Y-319125D01*
X1019193Y-318375D01*
X1019753Y-317875D01*
X1020500Y-317500D01*
X1021153D01*
X1021900Y-317750D01*
X1022460Y-318250D01*
G01X1025853Y-325000D02*
Y-317500D01*
X1030147Y-325000D01*
Y-317500D01*
G01X1033167Y-325000D02*
X1035500Y-317500D01*
X1037833Y-325000D01*
G01X1036993Y-322375D02*
X1034007D01*
G01X1043000Y-317500D02*
Y-325000D01*
G01X1040853Y-317500D02*
X1045147D01*
G01X1048447D02*
Y-322875D01*
X1048820Y-324000D01*
X1049567Y-324750D01*
X1050500Y-325000D01*
X1051433Y-324750D01*
X1052180Y-324000D01*
X1052553Y-322875D01*
Y-317500D01*
G01X1056133Y-325000D02*
Y-317500D01*
X1058467D01*
X1059213Y-317875D01*
X1059680Y-318375D01*
X1059867Y-319375D01*
X1059680Y-320375D01*
X1059120Y-321000D01*
X1058467Y-321375D01*
X1056133D01*
G01X1058467D02*
X1059867Y-325000D01*
G01X1067367D02*
X1063633D01*
Y-317500D01*
X1067367D01*
G01X1065873Y-321125D02*
X1063633D01*
G01X1071040Y-324000D02*
X1071787Y-324625D01*
X1072627Y-325000D01*
X1073373D01*
X1074120Y-324625D01*
X1074680Y-324000D01*
X1074960Y-323125D01*
X1074773Y-322250D01*
X1074307Y-321500D01*
X1073467Y-321000D01*
X1072347Y-320750D01*
X1071693Y-320250D01*
X1071413Y-319375D01*
X1071600Y-318500D01*
X1072067Y-317875D01*
X1072720Y-317500D01*
X1073373D01*
X1074027Y-317750D01*
X1074587Y-318375D01*
G01X1059500Y1105000D02*
Y985000D01*
G01Y1045000D02*
X1709500D01*
G01X1059500Y1075000D02*
X1709500D01*
G01X1070750Y1055000D02*
Y1065000D01*
X1073875D01*
X1074875Y1064500D01*
X1075500Y1063833D01*
X1075750Y1062500D01*
X1075500Y1061167D01*
X1074750Y1060333D01*
X1073875Y1059833D01*
X1070750D01*
G01X1073875D02*
X1075750Y1055000D01*
G01X1085750D02*
X1080750D01*
Y1065000D01*
X1085750D01*
G01X1083750Y1060167D02*
X1080750D01*
G01X1090125Y1065000D02*
X1093250Y1055000D01*
X1096375Y1065000D01*
G01X1099500Y1075000D02*
Y985000D01*
G01X1137700Y-455000D02*
Y-445000D01*
G01D02*
Y-305000D01*
G01Y-425000D02*
X1207700D01*
G01X1137700Y-395000D02*
X1207700D01*
G01X1137700Y-365000D02*
X1207700D01*
G01X1158447Y-325000D02*
Y-317500D01*
X1160313D01*
X1161060Y-317875D01*
X1161620Y-318375D01*
X1162087Y-319125D01*
X1162460Y-320000D01*
X1162553Y-321250D01*
X1162460Y-322500D01*
X1162087Y-323375D01*
X1161620Y-324125D01*
X1161060Y-324625D01*
X1160313Y-325000D01*
X1158447D01*
G01X1165667D02*
X1168000Y-317500D01*
X1170333Y-325000D01*
G01X1169493Y-322375D02*
X1166507D01*
G01X1175500Y-317500D02*
Y-325000D01*
G01X1173353Y-317500D02*
X1177647D01*
G01X1184867Y-325000D02*
X1181133D01*
Y-317500D01*
X1184867D01*
G01X1183373Y-321125D02*
X1181133D01*
G01X1709500Y1105000D02*
Y-455000D01*
X1189500D01*
G01X1199500D02*
Y-505000D01*
G01Y1115000D02*
Y1105000D01*
G01Y1115000D02*
Y1155000D01*
G01X1709500Y-425000D02*
X1209500D01*
G01X1211300Y-364700D02*
X1711300D01*
G01X1215340Y-439000D02*
X1216087Y-439625D01*
X1216927Y-440000D01*
X1217673D01*
X1218420Y-439625D01*
X1218980Y-439000D01*
X1219260Y-438125D01*
X1219073Y-437250D01*
X1218607Y-436500D01*
X1217767Y-436000D01*
X1216647Y-435750D01*
X1215993Y-435250D01*
X1215713Y-434375D01*
X1215900Y-433500D01*
X1216367Y-432875D01*
X1217020Y-432500D01*
X1217673D01*
X1218327Y-432750D01*
X1218887Y-433375D01*
G01X1226853Y-433125D02*
X1226293Y-432750D01*
X1225640Y-432500D01*
X1224893D01*
X1224053Y-432875D01*
X1223400Y-433500D01*
X1222933Y-434250D01*
X1222560Y-435500D01*
X1222467Y-436625D01*
X1222653Y-437750D01*
X1222933Y-438500D01*
X1223493Y-439250D01*
X1224147Y-439750D01*
X1224800Y-440000D01*
X1225453D01*
X1226107Y-439750D01*
X1226667Y-439375D01*
X1227133Y-438875D01*
G01X1229967Y-440000D02*
X1232300Y-432500D01*
X1234633Y-440000D01*
G01X1233793Y-437375D02*
X1230807D01*
G01X1237933Y-432500D02*
Y-440000D01*
X1241667D01*
G01X1249167D02*
X1245433D01*
Y-432500D01*
X1249167D01*
G01X1247673Y-436125D02*
X1245433D01*
G01X1230750Y-387400D02*
Y-374900D01*
X1234470D01*
X1235710Y-375525D01*
X1236640Y-376983D01*
X1236950Y-378650D01*
X1236640Y-380317D01*
X1235865Y-381567D01*
X1234470Y-382192D01*
X1230750D01*
G01X1249660Y-375942D02*
X1248730Y-375317D01*
X1247645Y-374900D01*
X1246405D01*
X1245010Y-375525D01*
X1243925Y-376567D01*
X1243150Y-377817D01*
X1242530Y-379900D01*
X1242375Y-381775D01*
X1242685Y-383650D01*
X1243150Y-384900D01*
X1244080Y-386150D01*
X1245165Y-386983D01*
X1246250Y-387400D01*
X1247335D01*
X1248420Y-386983D01*
X1249350Y-386359D01*
X1250125Y-385525D01*
G01X1259890Y-380733D02*
X1260510Y-380108D01*
X1260975Y-379067D01*
X1261285Y-377608D01*
X1260975Y-376358D01*
X1260355Y-375525D01*
X1259270Y-374900D01*
X1255085D01*
Y-387400D01*
X1260200D01*
X1261285Y-386567D01*
X1261905Y-385317D01*
X1262215Y-383858D01*
X1261905Y-382400D01*
X1260975Y-381150D01*
X1259890Y-380733D01*
X1255085D01*
G01X1269035Y-383233D02*
X1273065D01*
G01X1279885Y-387400D02*
Y-374900D01*
X1287015Y-387400D01*
Y-374900D01*
G01X1291975Y-387400D02*
X1295850Y-374900D01*
X1299725Y-387400D01*
G01X1298330Y-383025D02*
X1293370D01*
G01X1304220Y-387400D02*
Y-374900D01*
X1308250Y-385317D01*
X1312280Y-374900D01*
Y-387400D01*
G01X1323750D02*
X1317550D01*
Y-374900D01*
X1323750D01*
G01X1321270Y-380942D02*
X1317550D01*
G01X1330260Y-387817D02*
X1335840Y-374900D01*
G01X1341885Y-387400D02*
Y-374900D01*
X1349015Y-387400D01*
Y-374900D01*
G01X1357850Y-387400D02*
X1356920Y-387192D01*
X1355990Y-386359D01*
X1355370Y-384900D01*
X1355060Y-383233D01*
X1355370Y-381567D01*
X1355990Y-380108D01*
X1356920Y-379275D01*
X1357850Y-379067D01*
X1358780Y-379275D01*
X1359710Y-380108D01*
X1360330Y-381567D01*
X1360485Y-383233D01*
X1360330Y-384900D01*
X1359710Y-386359D01*
X1358780Y-387192D01*
X1357850Y-387400D01*
G01X1250500Y1055000D02*
Y1065000D01*
X1253000D01*
X1254000Y1064500D01*
X1254750Y1063833D01*
X1255375Y1062833D01*
X1255875Y1061666D01*
X1256000Y1060000D01*
X1255875Y1058333D01*
X1255375Y1057167D01*
X1254750Y1056166D01*
X1254000Y1055500D01*
X1253000Y1055000D01*
X1250500D01*
G01X1265750D02*
X1260750D01*
Y1065000D01*
X1265750D01*
G01X1263750Y1060167D02*
X1260750D01*
G01X1270625Y1056333D02*
X1271625Y1055500D01*
X1272750Y1055000D01*
X1273750D01*
X1274750Y1055500D01*
X1275500Y1056333D01*
X1275875Y1057500D01*
X1275625Y1058666D01*
X1275000Y1059667D01*
X1273875Y1060333D01*
X1272375Y1060667D01*
X1271500Y1061333D01*
X1271125Y1062500D01*
X1271375Y1063667D01*
X1272000Y1064500D01*
X1272875Y1065000D01*
X1273750D01*
X1274625Y1064667D01*
X1275375Y1063833D01*
G01X1286000Y1064167D02*
X1285250Y1064667D01*
X1284375Y1065000D01*
X1283375D01*
X1282250Y1064500D01*
X1281375Y1063667D01*
X1280750Y1062667D01*
X1280250Y1061000D01*
X1280125Y1059500D01*
X1280375Y1058000D01*
X1280750Y1057000D01*
X1281500Y1056000D01*
X1282375Y1055333D01*
X1283250Y1055000D01*
X1284125D01*
X1285000Y1055333D01*
X1285750Y1055833D01*
X1286375Y1056500D01*
G01X1290750Y1055000D02*
Y1065000D01*
X1293875D01*
X1294875Y1064500D01*
X1295500Y1063833D01*
X1295750Y1062500D01*
X1295500Y1061167D01*
X1294750Y1060333D01*
X1293875Y1059833D01*
X1290750D01*
G01X1293875D02*
X1295750Y1055000D01*
G01X1301750Y1065000D02*
X1304750D01*
G01X1303250D02*
Y1055000D01*
G01X1301750D02*
X1304750D01*
G01X1310750D02*
Y1065000D01*
X1313750D01*
X1314750Y1064500D01*
X1315500Y1063333D01*
X1315750Y1062000D01*
X1315500Y1060667D01*
X1314875Y1059667D01*
X1313750Y1059166D01*
X1310750D01*
G01X1323250Y1065000D02*
Y1055000D01*
G01X1320375Y1065000D02*
X1326125D01*
G01X1331750D02*
X1334750D01*
G01X1333250D02*
Y1055000D01*
G01X1331750D02*
X1334750D01*
G01X1343250D02*
X1342250Y1055167D01*
X1341375Y1055833D01*
X1340625Y1056833D01*
X1340125Y1058000D01*
X1339875Y1059333D01*
Y1060667D01*
X1340125Y1062000D01*
X1340625Y1063167D01*
X1341375Y1064167D01*
X1342250Y1064833D01*
X1343250Y1065000D01*
X1344250Y1064833D01*
X1345125Y1064167D01*
X1345875Y1063167D01*
X1346375Y1062000D01*
X1346625Y1060667D01*
Y1059333D01*
X1346375Y1058000D01*
X1345875Y1056833D01*
X1345125Y1055833D01*
X1344250Y1055167D01*
X1343250Y1055000D01*
G01X1350375D02*
Y1065000D01*
X1356125Y1055000D01*
Y1065000D01*
G01X1310750Y1085000D02*
Y1095000D01*
X1313875D01*
X1314875Y1094500D01*
X1315500Y1093833D01*
X1315750Y1092500D01*
X1315500Y1091167D01*
X1314750Y1090333D01*
X1313875Y1089833D01*
X1310750D01*
G01X1313875D02*
X1315750Y1085000D01*
G01X1325750D02*
X1320750D01*
Y1095000D01*
X1325750D01*
G01X1323750Y1090167D02*
X1320750D01*
G01X1330125Y1095000D02*
X1333250Y1085000D01*
X1336375Y1095000D01*
G01X1341750D02*
X1344750D01*
G01X1343250D02*
Y1085000D01*
G01X1341750D02*
X1344750D01*
G01X1350625Y1086333D02*
X1351625Y1085500D01*
X1352750Y1085000D01*
X1353750D01*
X1354750Y1085500D01*
X1355500Y1086333D01*
X1355875Y1087500D01*
X1355625Y1088666D01*
X1355000Y1089667D01*
X1353875Y1090333D01*
X1352375Y1090667D01*
X1351500Y1091333D01*
X1351125Y1092500D01*
X1351375Y1093667D01*
X1352000Y1094500D01*
X1352875Y1095000D01*
X1353750D01*
X1354625Y1094667D01*
X1355375Y1093833D01*
G01X1361750Y1095000D02*
X1364750D01*
G01X1363250D02*
Y1085000D01*
G01X1361750D02*
X1364750D01*
G01X1373250D02*
X1372250Y1085167D01*
X1371375Y1085833D01*
X1370625Y1086833D01*
X1370125Y1088000D01*
X1369875Y1089333D01*
Y1090667D01*
X1370125Y1092000D01*
X1370625Y1093167D01*
X1371375Y1094167D01*
X1372250Y1094833D01*
X1373250Y1095000D01*
X1374250Y1094833D01*
X1375125Y1094167D01*
X1375875Y1093167D01*
X1376375Y1092000D01*
X1376625Y1090667D01*
Y1089333D01*
X1376375Y1088000D01*
X1375875Y1086833D01*
X1375125Y1085833D01*
X1374250Y1085167D01*
X1373250Y1085000D01*
G01X1380375D02*
Y1095000D01*
X1386125Y1085000D01*
Y1095000D01*
G01X1390625Y1086333D02*
X1391625Y1085500D01*
X1392750Y1085000D01*
X1393750D01*
X1394750Y1085500D01*
X1395500Y1086333D01*
X1395875Y1087500D01*
X1395625Y1088666D01*
X1395000Y1089667D01*
X1393875Y1090333D01*
X1392375Y1090667D01*
X1391500Y1091333D01*
X1391125Y1092500D01*
X1391375Y1093667D01*
X1392000Y1094500D01*
X1392875Y1095000D01*
X1393750D01*
X1394625Y1094667D01*
X1395375Y1093833D01*
G01X1356700Y-425900D02*
Y-455900D01*
G01X1367340Y-439000D02*
X1368087Y-439625D01*
X1368927Y-440000D01*
X1369673D01*
X1370420Y-439625D01*
X1370980Y-439000D01*
X1371260Y-438125D01*
X1371073Y-437250D01*
X1370607Y-436500D01*
X1369767Y-436000D01*
X1368647Y-435750D01*
X1367993Y-435250D01*
X1367713Y-434375D01*
X1367900Y-433500D01*
X1368367Y-432875D01*
X1369020Y-432500D01*
X1369673D01*
X1370327Y-432750D01*
X1370887Y-433375D01*
G01X1375680Y-432500D02*
X1377920D01*
G01X1376800D02*
Y-440000D01*
G01X1375680D02*
X1377920D01*
G01X1382527Y-432500D02*
X1386073D01*
X1382527Y-440000D01*
X1386073D01*
G01X1393667D02*
X1389933D01*
Y-432500D01*
X1393667D01*
G01X1392173Y-436125D02*
X1389933D01*
G01X1499500Y1125000D02*
Y1155000D01*
G01X1519500Y985000D02*
Y1075000D01*
G01X1529500Y-425000D02*
Y-455000D01*
G01X1540340Y-439000D02*
X1541087Y-439625D01*
X1541927Y-440000D01*
X1542673D01*
X1543420Y-439625D01*
X1543980Y-439000D01*
X1544260Y-438125D01*
X1544073Y-437250D01*
X1543607Y-436500D01*
X1542767Y-436000D01*
X1541647Y-435750D01*
X1540993Y-435250D01*
X1540713Y-434375D01*
X1540900Y-433500D01*
X1541367Y-432875D01*
X1542020Y-432500D01*
X1542673D01*
X1543327Y-432750D01*
X1543887Y-433375D01*
G01X1547840Y-440000D02*
Y-432500D01*
G01X1551760D02*
Y-440000D01*
G01Y-436250D02*
X1547840D01*
G01X1559167Y-440000D02*
X1555433D01*
Y-432500D01*
X1559167D01*
G01X1557673Y-436125D02*
X1555433D01*
G01X1566667Y-440000D02*
X1562933D01*
Y-432500D01*
X1566667D01*
G01X1565173Y-436125D02*
X1562933D01*
G01X1572300Y-432500D02*
Y-440000D01*
G01X1570153Y-432500D02*
X1574447D01*
G01X1540500Y1055000D02*
Y1065000D01*
X1543000D01*
X1544000Y1064500D01*
X1544750Y1063833D01*
X1545375Y1062833D01*
X1545875Y1061666D01*
X1546000Y1060000D01*
X1545875Y1058333D01*
X1545375Y1057167D01*
X1544750Y1056166D01*
X1544000Y1055500D01*
X1543000Y1055000D01*
X1540500D01*
G01X1550125D02*
X1553250Y1065000D01*
X1556375Y1055000D01*
G01X1555250Y1058500D02*
X1551250D01*
G01X1563250Y1065000D02*
Y1055000D01*
G01X1560375Y1065000D02*
X1566125D01*
G01X1575750Y1055000D02*
X1570750D01*
Y1065000D01*
X1575750D01*
G01X1573750Y1060167D02*
X1570750D01*
G01X1609500Y985000D02*
Y1075000D01*
G01X1620125Y1055000D02*
X1623250Y1065000D01*
X1626375Y1055000D01*
G01X1625250Y1058500D02*
X1621250D01*
G01X1630750Y1055000D02*
Y1065000D01*
X1633750D01*
X1634750Y1064500D01*
X1635500Y1063333D01*
X1635750Y1062000D01*
X1635500Y1060667D01*
X1634875Y1059667D01*
X1633750Y1059166D01*
X1630750D01*
G01X1640750Y1055000D02*
Y1065000D01*
X1643750D01*
X1644750Y1064500D01*
X1645500Y1063333D01*
X1645750Y1062000D01*
X1645500Y1060667D01*
X1644875Y1059667D01*
X1643750Y1059166D01*
X1640750D01*
G01X1650750Y1055000D02*
Y1065000D01*
X1653875D01*
X1654875Y1064500D01*
X1655500Y1063833D01*
X1655750Y1062500D01*
X1655500Y1061167D01*
X1654750Y1060333D01*
X1653875Y1059833D01*
X1650750D01*
G01X1653875D02*
X1655750Y1055000D01*
G01X1663250D02*
X1662250Y1055167D01*
X1661375Y1055833D01*
X1660625Y1056833D01*
X1660125Y1058000D01*
X1659875Y1059333D01*
Y1060667D01*
X1660125Y1062000D01*
X1660625Y1063167D01*
X1661375Y1064167D01*
X1662250Y1064833D01*
X1663250Y1065000D01*
X1664250Y1064833D01*
X1665125Y1064167D01*
X1665875Y1063167D01*
X1666375Y1062000D01*
X1666625Y1060667D01*
Y1059333D01*
X1666375Y1058000D01*
X1665875Y1056833D01*
X1665125Y1055833D01*
X1664250Y1055167D01*
X1663250Y1055000D01*
G01X1670125Y1065000D02*
X1673250Y1055000D01*
X1676375Y1065000D01*
G01X1685750Y1055000D02*
X1680750D01*
Y1065000D01*
X1685750D01*
G01X1683750Y1060167D02*
X1680750D01*
G01X1690500Y1055000D02*
Y1065000D01*
X1693000D01*
X1694000Y1064500D01*
X1694750Y1063833D01*
X1695375Y1062833D01*
X1695875Y1061666D01*
X1696000Y1060000D01*
X1695875Y1058333D01*
X1695375Y1057167D01*
X1694750Y1056166D01*
X1694000Y1055500D01*
X1693000Y1055000D01*
X1690500D01*
G01X1699500Y1105000D02*
X1709500D01*
G01Y-95000D02*
X1739500D01*
G01X1709500Y335000D02*
X1739500D01*
G01X1709500Y765000D02*
X1739500D01*
G01X1735880Y517916D02*
X1733990Y519167D01*
X1731785Y520000D01*
X1729265D01*
X1726430Y518750D01*
X1724225Y516667D01*
X1722650Y514166D01*
X1721390Y510000D01*
X1721075Y506250D01*
X1721705Y502500D01*
X1722650Y500000D01*
X1724540Y497499D01*
X1726745Y495833D01*
X1728950Y495000D01*
X1731155D01*
X1733360Y495833D01*
X1735250Y497083D01*
X1736825Y498749D01*
G01X1731075Y-285000D02*
X1738950Y-260000D01*
X1746825Y-285000D01*
G01X1743990Y-276250D02*
X1733910D01*
G01X1741470Y98334D02*
X1742730Y99583D01*
X1743675Y101666D01*
X1744305Y104584D01*
X1743675Y107083D01*
X1742415Y108750D01*
X1740210Y110000D01*
X1731705D01*
Y85000D01*
X1742100D01*
X1744305Y86666D01*
X1745565Y89167D01*
X1746195Y92083D01*
X1745565Y94999D01*
X1743675Y97500D01*
X1741470Y98334D01*
X1731705D01*
G01X1732020Y945000D02*
Y970000D01*
X1738320D01*
X1740840Y968750D01*
X1742730Y967083D01*
X1744305Y964584D01*
X1745565Y961666D01*
X1745880Y957500D01*
X1745565Y953333D01*
X1744305Y950416D01*
X1742730Y947916D01*
X1740840Y946250D01*
X1738320Y945000D01*
X1732020D01*
G54D12*
X17598Y148803D03*
Y199197D03*
G54D22*
G01X-257008Y951000D02*
X-255050Y957300D01*
X-253092Y951000D01*
G01X-253797Y953205D02*
X-256303D01*
G01X-250317Y951000D02*
Y957300D01*
X-248358D01*
X-247732Y956985D01*
X-247340Y956565D01*
X-247183Y955725D01*
X-247340Y954885D01*
X-247810Y954360D01*
X-248358Y954045D01*
X-250317D01*
G01X-248358D02*
X-247183Y951000D01*
G01X-242450Y957300D02*
Y951000D01*
G01X-244252Y957300D02*
X-240648D01*
G01X-238500D02*
X-237403Y951000D01*
X-236150Y957300D01*
X-234897Y951000D01*
X-233800Y957300D01*
G01X-229850Y951000D02*
X-230477Y951105D01*
X-231025Y951525D01*
X-231495Y952155D01*
X-231808Y952890D01*
X-231965Y953730D01*
Y954570D01*
X-231808Y955410D01*
X-231495Y956145D01*
X-231025Y956775D01*
X-230477Y957195D01*
X-229850Y957300D01*
X-229223Y957195D01*
X-228675Y956775D01*
X-228205Y956145D01*
X-227892Y955410D01*
X-227735Y954570D01*
Y953730D01*
X-227892Y952890D01*
X-228205Y952155D01*
X-228675Y951525D01*
X-229223Y951105D01*
X-229850Y951000D01*
G01X-225117D02*
Y957300D01*
X-223158D01*
X-222532Y956985D01*
X-222140Y956565D01*
X-221983Y955725D01*
X-222140Y954885D01*
X-222610Y954360D01*
X-223158Y954045D01*
X-225117D01*
G01X-223158D02*
X-221983Y951000D01*
G01X-218973D02*
Y957300D01*
G01X-215997D02*
X-218973Y953415D01*
G01X-215527Y951000D02*
X-217642Y955200D01*
G01X-206452Y951000D02*
Y957300D01*
X-202848Y951000D01*
Y957300D01*
G01X-200308Y951000D02*
X-198350Y957300D01*
X-196392Y951000D01*
G01X-197097Y953205D02*
X-199603D01*
G01X-194087Y951000D02*
Y957300D01*
X-192050Y952050D01*
X-190013Y957300D01*
Y951000D01*
G01X-184183D02*
X-187317D01*
Y957300D01*
X-184183D01*
G01X-185437Y954255D02*
X-187317D01*
G01X-254617Y980000D02*
Y986300D01*
X-252737D01*
X-252110Y985985D01*
X-251640Y985250D01*
X-251483Y984410D01*
X-251640Y983570D01*
X-252032Y982940D01*
X-252737Y982625D01*
X-254617D01*
G01X-245027Y985775D02*
X-245497Y986090D01*
X-246045Y986300D01*
X-246672D01*
X-247377Y985985D01*
X-247925Y985460D01*
X-248317Y984830D01*
X-248630Y983780D01*
X-248708Y982835D01*
X-248552Y981890D01*
X-248317Y981260D01*
X-247847Y980630D01*
X-247298Y980210D01*
X-246750Y980000D01*
X-246202D01*
X-245653Y980210D01*
X-245183Y980525D01*
X-244792Y980945D01*
G01X-239823Y983360D02*
X-239510Y983675D01*
X-239275Y984200D01*
X-239118Y984935D01*
X-239275Y985565D01*
X-239588Y985985D01*
X-240137Y986300D01*
X-242252D01*
Y980000D01*
X-239667D01*
X-239118Y980420D01*
X-238805Y981050D01*
X-238648Y981785D01*
X-238805Y982520D01*
X-239275Y983150D01*
X-239823Y983360D01*
X-242252D01*
G01X-235168Y982100D02*
X-233132D01*
G01X-229652Y980000D02*
Y986300D01*
X-226048Y980000D01*
Y986300D01*
G01X-223508Y980000D02*
X-221550Y986300D01*
X-219592Y980000D01*
G01X-220297Y982205D02*
X-222803D01*
G01X-217287Y980000D02*
Y986300D01*
X-215250Y981050D01*
X-213213Y986300D01*
Y980000D01*
G01X-207383D02*
X-210517D01*
Y986300D01*
X-207383D01*
G01X-208637Y983255D02*
X-210517D01*
G01X-204060Y979790D02*
X-201240Y986300D01*
G01X-198152Y980000D02*
Y986300D01*
X-194548Y980000D01*
Y986300D01*
G01X-190050Y980000D02*
X-190520Y980105D01*
X-190990Y980525D01*
X-191303Y981260D01*
X-191460Y982100D01*
X-191303Y982940D01*
X-190990Y983675D01*
X-190520Y984095D01*
X-190050Y984200D01*
X-189580Y984095D01*
X-189110Y983675D01*
X-188797Y982940D01*
X-188718Y982100D01*
X-188797Y981260D01*
X-189110Y980525D01*
X-189580Y980105D01*
X-190050Y980000D01*
G01X-243327Y1048775D02*
X-243797Y1049090D01*
X-244345Y1049300D01*
X-244972D01*
X-245677Y1048985D01*
X-246225Y1048460D01*
X-246617Y1047830D01*
X-246930Y1046780D01*
X-247008Y1045835D01*
X-246852Y1044890D01*
X-246617Y1044260D01*
X-246147Y1043630D01*
X-245598Y1043210D01*
X-245050Y1043000D01*
X-244502D01*
X-243953Y1043210D01*
X-243483Y1043525D01*
X-243092Y1043945D01*
G01X-240473Y1049300D02*
Y1044785D01*
X-240160Y1043840D01*
X-239533Y1043210D01*
X-238750Y1043000D01*
X-237967Y1043210D01*
X-237340Y1043840D01*
X-237027Y1044785D01*
Y1049300D01*
G01X-234095Y1043840D02*
X-233468Y1043315D01*
X-232763Y1043000D01*
X-232137D01*
X-231510Y1043315D01*
X-231040Y1043840D01*
X-230805Y1044575D01*
X-230962Y1045310D01*
X-231353Y1045940D01*
X-232058Y1046360D01*
X-232998Y1046570D01*
X-233547Y1046990D01*
X-233782Y1047725D01*
X-233625Y1048460D01*
X-233233Y1048985D01*
X-232685Y1049300D01*
X-232137D01*
X-231588Y1049090D01*
X-231118Y1048565D01*
G01X-226150Y1049300D02*
Y1043000D01*
G01X-227952Y1049300D02*
X-224348D01*
G01X-219850Y1043000D02*
X-220477Y1043105D01*
X-221025Y1043525D01*
X-221495Y1044155D01*
X-221808Y1044890D01*
X-221965Y1045730D01*
Y1046570D01*
X-221808Y1047410D01*
X-221495Y1048145D01*
X-221025Y1048775D01*
X-220477Y1049195D01*
X-219850Y1049300D01*
X-219223Y1049195D01*
X-218675Y1048775D01*
X-218205Y1048145D01*
X-217892Y1047410D01*
X-217735Y1046570D01*
Y1045730D01*
X-217892Y1044890D01*
X-218205Y1044155D01*
X-218675Y1043525D01*
X-219223Y1043105D01*
X-219850Y1043000D01*
G01X-215587D02*
Y1049300D01*
X-213550Y1044050D01*
X-211513Y1049300D01*
Y1043000D01*
G01X-205683D02*
X-208817D01*
Y1049300D01*
X-205683D01*
G01X-206937Y1046255D02*
X-208817D01*
G01X-202517Y1043000D02*
Y1049300D01*
X-200558D01*
X-199932Y1048985D01*
X-199540Y1048565D01*
X-199383Y1047725D01*
X-199540Y1046885D01*
X-200010Y1046360D01*
X-200558Y1046045D01*
X-202517D01*
G01X-200558D02*
X-199383Y1043000D01*
G01X-56617Y1012000D02*
Y1018300D01*
X-54658D01*
X-54032Y1017985D01*
X-53640Y1017565D01*
X-53483Y1016725D01*
X-53640Y1015885D01*
X-54110Y1015360D01*
X-54658Y1015045D01*
X-56617D01*
G01X-54658D02*
X-53483Y1012000D01*
G01X-47183D02*
X-50317D01*
Y1018300D01*
X-47183D01*
G01X-48437Y1015255D02*
X-50317D01*
G01X-44408Y1018300D02*
X-42450Y1012000D01*
X-40492Y1018300D01*
G01X-55773Y1042000D02*
Y1048300D01*
X-54207D01*
X-53580Y1047985D01*
X-53110Y1047565D01*
X-52718Y1046935D01*
X-52405Y1046200D01*
X-52327Y1045150D01*
X-52405Y1044100D01*
X-52718Y1043365D01*
X-53110Y1042735D01*
X-53580Y1042315D01*
X-54207Y1042000D01*
X-55773D01*
G01X-49708D02*
X-47750Y1048300D01*
X-45792Y1042000D01*
G01X-46497Y1044205D02*
X-49003D01*
G01X-41450Y1048300D02*
Y1042000D01*
G01X-43252Y1048300D02*
X-39648D01*
G01X-33583Y1042000D02*
X-36717D01*
Y1048300D01*
X-33583D01*
G01X-34837Y1045255D02*
X-36717D01*
G54D13*
X20500Y37000D03*
Y47000D03*
Y57000D03*
Y67000D03*
X30500Y37000D03*
Y47000D03*
Y57000D03*
Y67000D03*
X69000Y7000D03*
Y17000D03*
Y199500D03*
Y209500D03*
X79000Y7000D03*
Y17000D03*
Y199500D03*
Y209500D03*
X89000Y7000D03*
Y17000D03*
Y199500D03*
Y209500D03*
X99000Y7000D03*
Y17000D03*
Y199500D03*
Y209500D03*
X109000Y7000D03*
Y17000D03*
Y199500D03*
Y209500D03*
X119000Y7000D03*
Y17000D03*
Y199500D03*
Y209500D03*
X129000Y7000D03*
Y17000D03*
Y199500D03*
Y209500D03*
X139000Y7000D03*
Y17000D03*
Y199500D03*
Y209500D03*
X149000Y7000D03*
Y17000D03*
Y199500D03*
Y209500D03*
X159000Y7000D03*
Y17000D03*
Y199500D03*
Y209500D03*
G54D23*
G01X73000Y26500D02*
X43256D01*
X37000Y32756D01*
Y48500D01*
X33500Y52000D01*
X25500D01*
X20500Y47000D01*
G01Y57000D02*
X25500Y62000D01*
X35500D01*
X41000Y56500D01*
Y34500D01*
X45000Y30500D01*
X73000D01*
G01X27598Y167976D02*
X24976D01*
X21000Y164000D01*
Y159500D01*
X26000Y154500D01*
X33500D01*
X40000Y161000D01*
Y174000D01*
X43524Y177524D01*
X70560D01*
X74036Y181000D01*
X88500D01*
X89500Y180000D01*
G01X30500Y47000D02*
X35000Y42500D01*
Y32000D01*
X42500Y24500D01*
X75000D01*
G01X30500Y57000D02*
X34500D01*
X39000Y52500D01*
Y33500D01*
X44000Y28500D01*
X75000D01*
G01X34606Y180024D02*
X69524D01*
X73000Y183500D01*
X87500D01*
X89000Y185000D01*
G01X114500Y166500D02*
X111500Y169500D01*
X102964D01*
X100500Y171964D01*
Y177964D01*
X97004Y181460D01*
X91404D01*
X90630Y181382D01*
X89500Y180000D01*
G01X114000Y176500D02*
X109500Y172000D01*
X104000D01*
X103000Y173000D01*
Y179000D01*
X98040Y183960D01*
X91278D01*
X90382Y183870D01*
X89000Y185000D01*
G54D14*
X27598Y159945D03*
Y167976D03*
Y176008D03*
Y184039D03*
X34606Y163961D03*
Y171992D03*
Y180024D03*
Y188055D03*
G54D15*
X31102Y141795D03*
Y206205D03*
G54D16*
X89500Y113500D03*
G54D17*
G01X-264400Y1062000D02*
Y942000D01*
G01D02*
X175600D01*
G01D02*
X-264400D01*
G01D02*
Y1062000D01*
G01Y972000D02*
X175600D01*
G01D02*
X-264400D01*
G01Y1002000D02*
X175600D01*
G01X-114400D02*
X-264000D01*
G01X-264400Y1032000D02*
X25600D01*
G01X175600Y1062000D02*
X-264400D01*
G01D02*
X175600D01*
G01X-179400Y942000D02*
Y1062000D01*
G01X175600Y1002000D02*
X-114400D01*
G01X-61900Y1062000D02*
Y1002000D01*
G01X-26900Y1062000D02*
Y1002000D01*
G01X26200Y1002200D02*
X26300Y1061200D01*
G01X175600Y942000D02*
Y1062000D01*
G01D02*
Y942000D01*
G54D18*
G01X17682Y39818D02*
X20500Y37000D01*
G01D02*
Y40702D01*
G01Y37000D02*
X24202D01*
G01X20500D02*
X23318Y39818D01*
G01X20500Y37000D02*
X23318Y34182D01*
G01X26798Y37000D02*
X30500D01*
G01X27682Y34182D02*
X30500Y37000D01*
G01X27682Y39818D02*
X30500Y37000D01*
G01X25900Y141795D02*
X31102D01*
G01X27224Y137917D02*
X31102Y141795D01*
G01X27224Y145673D02*
X31102Y141795D01*
G01X27224Y202327D02*
X31102Y206205D01*
G01X25900D02*
X31102D01*
G01X30500Y33298D02*
Y37000D01*
G01D02*
Y40702D01*
G01X31102Y136593D02*
Y141795D01*
G01D02*
Y146997D01*
G01Y141795D02*
X36304D01*
G01X31102D02*
X34980Y145673D01*
G01X31102Y141795D02*
X34980Y137917D01*
G01X31102Y201003D02*
Y206205D01*
G01D02*
X34980Y202327D01*
G01X31102Y206205D02*
X36304D01*
G01X66182Y196682D02*
X69000Y199500D01*
G01X65298D02*
X69000D01*
G01X66182Y202318D02*
X69000Y199500D01*
G01X65298Y209500D02*
X69000D01*
G01X66182Y206682D02*
X69000Y209500D01*
G01Y195798D02*
Y199500D01*
G01D02*
Y203202D01*
G01Y199500D02*
X71818Y202318D01*
G01X69000Y205798D02*
Y209500D01*
G01D02*
X71818Y206682D01*
G01X79000Y195798D02*
Y199500D01*
G01X76182Y196682D02*
X79000Y199500D01*
G01D02*
Y203202D01*
G01X75298Y199500D02*
X79000D01*
G01D02*
X82702D01*
G01X79000D02*
X81818Y202318D01*
G01X76182D02*
X79000Y199500D01*
G01D02*
X81818Y196682D01*
G01X79000Y205798D02*
Y209500D01*
G01D02*
Y213202D01*
G01X75298Y209500D02*
X79000D01*
G01D02*
X82702D01*
G01X76182Y206682D02*
X79000Y209500D01*
G01D02*
X81818Y212318D01*
G01X76182D02*
X79000Y209500D01*
G01D02*
X81818Y206682D01*
G54D19*
G01X701300Y-284700D02*
Y-455100D01*
X704700D01*
G01X1137600Y-283900D02*
X1137700D01*
Y-455000D01*
M02*
