M48
INCH
T01C.008
T02C.03937
T03C.06575
T04C.125
T05C.12992
;LEADER: 12 
;HEADER: 
;CODE  : ASCII 
;FILE  : ETHIIc-1-4.drl for board #Taaaaae05020.tmp ... layers TOP and BOTTOM
;T01 Holesize 1. = 8.000000 Tolerance = +2.000000/-3.000000 PLATED MILS Quantity = 146
;T02 Holesize 2. = 39.370000 Tolerance = +3.000000/-3.000000 PLATED MILS Quantity = 57
;T03 Holesize 3. = 65.750000 Tolerance = +3.000000/-3.000000 PLATED MILS Quantity = 2
;T04 Holesize 4. = 125.000000 Tolerance = +3.000000/-3.000000 PLATED MILS Quantity = 4
;T05 Holesize 5. = 129.920000 Tolerance = +3.000000/-3.000000 NON_PLATED MILS Quantity = 2
%
G90
T01
X0000008500Y0000043000
X0000008500Y0000061000
X0000022200Y0000075700
X0000027800Y0000075800
X0000018500Y0000079000
X0000027800Y0000082700
X0000022200Y0000083000
X0000027500Y0000087000
X0000027500Y0000095000
X0000027500Y0000102500
X0000044050Y0000049950
X0000044050Y0000059950
X0000031000Y0000079000
X0000032000Y0000088000
X0000032000Y0000093000
X0000031000Y0000098000
X0000043100Y0000134500
X0000043600Y0000213000
X0000070000Y0000188000
X0000089000Y0000185000
X0000089500Y0000180000
X0000067050Y0000169050
X0000062700Y0000168800
X0000070700Y0000113200
X0000070700Y0000102800
X0000083700Y0000085700
X0000089300Y0000085700
X0000083950Y0000077950
X0000072700Y0000077200
X0000089300Y0000075200
X0000083700Y0000068700
X0000089000Y0000065000
X0000083500Y0000065000
X0000070200Y0000055200
X0000089300Y0000048800
X0000083700Y0000048700
X0000070300Y0000047300
X0000073000Y0000030500
X0000075000Y0000028500
X0000073000Y0000026500
X0000075000Y0000024500
X0000113650Y0000026500
X0000113700Y0000031800
X0000112000Y0000057500
X0000114000Y0000059500
X0000116000Y0000061500
X0000118000Y0000065000
X0000092000Y0000068000
X0000107000Y0000080000
X0000105000Y0000083000
X0000119500Y0000085500
X0000103500Y0000086000
X0000115500Y0000086500
X0000113500Y0000088500
X0000112537Y0000094537
X0000115500Y0000094500
X0000118500Y0000094500
X0000118000Y0000104000
X0000113000Y0000104500
X0000095500Y0000112500
X0000105450Y0000112550
X0000119500Y0000116000
X0000111000Y0000116000
X0000105500Y0000146500
X0000114500Y0000166500
X0000108450Y0000174450
X0000114000Y0000176500
X0000111500Y0000181500
X0000112000Y0000185000
X0000116050Y0000188450
X0000135450Y0000188450
X0000132000Y0000176500
X0000130000Y0000166500
X0000127000Y0000151500
X0000124750Y0000137250
X0000126000Y0000116000
X0000132500Y0000116000
X0000142500Y0000116000
X0000129000Y0000108500
X0000122500Y0000108500
X0000135700Y0000107200
X0000145700Y0000107200
X0000127500Y0000103500
X0000127500Y0000094500
X0000121500Y0000094500
X0000124500Y0000094500
X0000124500Y0000083500
X0000134000Y0000080000
X0000131500Y0000078000
X0000139000Y0000077500
X0000141000Y0000075500
X0000148000Y0000073500
X0000145500Y0000071500
X0000143500Y0000069000
X0000122000Y0000058000
X0000123500Y0000056000
X0000125000Y0000054000
X0000126500Y0000052000
X0000128000Y0000050000
X0000130000Y0000048000
X0000131500Y0000046000
X0000136000Y0000044000
X0000129863Y0000043363
X0000138500Y0000034000
X0000121500Y0000031500
X0000147800Y0000031300
X0000144500Y0000023000
X0000138500Y0000023000
X0000126500Y0000022500
X0000132500Y0000022500
X0000153000Y0000023500
X0000151500Y0000026000
X0000157000Y0000028000
X0000167200Y0000039200
X0000175750Y0000043000
X0000175750Y0000049500
X0000153000Y0000069000
X0000165700Y0000072200
X0000171300Y0000072200
X0000150500Y0000077000
X0000165700Y0000079300
X0000171300Y0000079300
X0000165700Y0000092200
X0000171300Y0000092200
X0000153500Y0000105500
X0000169450Y0000108050
X0000155500Y0000111000
X0000169450Y0000117550
X0000169450Y0000126550
X0000166050Y0000138550
X0000169500Y0000143000
X0000173500Y0000143000
X0000159000Y0000146500
X0000166050Y0000154450
X0000173500Y0000155000
X0000173500Y0000163000
X0000166050Y0000163550
X0000159000Y0000171500
X0000170000Y0000175500
X0000173500Y0000175500
X0000166000Y0000179000
X0000184500Y0000132500
X0000184500Y0000123500
X0000184500Y0000114500
X0000181950Y0000070050
X0000181950Y0000046950
T02
X0000069000Y0000007000
R09X0000010000
X0000159000Y0000017000
R09X-0000010000
X0000030500Y0000037000
X0000020500Y0000037000
X0000020500Y0000047000
X0000030500Y0000047000
X0000030500Y0000057000
X0000020500Y0000057000
X0000020500Y0000067000
X0000030500Y0000067000
X0000089500Y0000113500
X0000027598Y0000159945
X0000027598Y0000167976
X0000034606Y0000163961
X0000034606Y0000171992
X0000027598Y0000176008
X0000027598Y0000184039
X0000034606Y0000180024
X0000034606Y0000188055
X0000069000Y0000199500
X0000079000Y0000199500
R08X0000010000
X0000159000Y0000209500
R09X-0000010000
T03
X0000031102Y0000141795
X0000031102Y0000206205
T04
X0000015000Y0000015000
X0000015000Y0000121500
X0000182000Y0000201500
X0000182000Y0000015000
T05
X0000017598Y0000148803
X0000017598Y0000199197
M30
